<?xml version="1.0" encoding="UTF-8" standalone="no"?>
<!DOCTYPE svg PUBLIC "-//W3C//DTD SVG 1.1//EN" "http://www.w3.org/Graphics/SVG/1.1/DTD/svg11.dtd">
<svg version="1.1" xmlns="http://www.w3.org/2000/svg" xmlns:xlink="http://www.w3.org/1999/xlink" preserveAspectRatio="xMidYMid meet" viewBox="0 0 32 32" width="32" height="32"><defs><path d="M19.32 4.23C23.5 4.23 26.89 8.44 26.89 13.63C26.89 13.83 26.88 14.02 26.87 14.22C29.89 15.01 32.12 17.65 32.12 20.79C32.12 20.79 32.12 20.79 32.12 20.79C32.12 24.56 28.93 27.61 24.99 27.61C23.21 27.61 8.91 27.61 7.12 27.61C3.19 27.61 0 24.56 0 20.79C0 20.79 0 20.79 0 20.79C0 17.51 2.42 14.77 5.65 14.12C5.94 10.56 8.36 7.78 11.3 7.78C11.95 7.78 12.57 7.92 13.15 8.17C14.52 5.78 16.77 4.23 19.32 4.23Z" id="a6n93KrRhf"></path><radialGradient id="gradienta4Af83hen" gradientUnits="userSpaceOnUse" cx="15.74" cy="16.62" dx="-2.91" dy="43.76" r="32.93"><stop style="stop-color: #fcba03;stop-opacity: 1" offset="0%"></stop><stop style="stop-color: #cc9602;stop-opacity: 1" offset="44.6359459346755%"></stop><stop style="stop-color: #906a00;stop-opacity: 1" offset="100%"></stop></radialGradient><path d="M15.04 12.05L15.03 12.05L15.02 12.05L15.01 12.06L14.99 12.06L14.98 12.06L14.97 12.07L14.96 12.07L14.95 12.08L14.94 12.09L14.94 12.09L14.93 12.1L14.92 12.11L14.91 12.12L14.9 12.12L14.89 12.13L14.89 12.14L14.88 12.15L14.87 12.16L14.86 12.17L14.86 12.18L14.85 12.2L14.84 12.21L14.84 12.22L14.83 12.23L14.83 12.25L14.82 12.26L14.81 12.27L14.81 12.29L14.8 12.3L14.8 12.32L14.79 12.33L14.79 12.34L14.78 12.36L14.78 12.38L14.77 12.39L14.76 12.41L14.76 12.42L14.75 12.44L14.48 13.45L14.4 13.47L14.21 13.54L14.03 13.61L13.85 13.69L13.67 13.78L13.66 13.79L12.75 13.26L12.74 13.26L12.72 13.25L12.71 13.24L12.69 13.23L12.68 13.23L12.66 13.22L12.65 13.21L12.63 13.21L12.62 13.2L12.61 13.19L12.59 13.19L12.58 13.18L12.57 13.18L12.55 13.17L12.54 13.17L12.53 13.17L12.51 13.16L12.5 13.16L12.49 13.15L12.47 13.15L12.46 13.15L12.45 13.15L12.44 13.15L12.43 13.15L12.41 13.15L12.4 13.15L12.39 13.15L12.38 13.15L12.37 13.15L12.36 13.15L12.35 13.15L12.34 13.16L12.32 13.16L12.31 13.17L12.3 13.17L12.29 13.18L12.28 13.18L12.27 13.19L12.27 13.2L12.26 13.21L10.93 14.53L10.93 14.54L10.92 14.55L10.91 14.56L10.9 14.57L10.9 14.58L10.89 14.59L10.89 14.6L10.88 14.61L10.88 14.62L10.88 14.63L10.87 14.64L10.87 14.66L10.87 14.67L10.87 14.68L10.87 14.69L10.87 14.7L10.87 14.72L10.87 14.73L10.87 14.74L10.87 14.75L10.88 14.77L10.88 14.78L10.88 14.79L10.89 14.81L10.89 14.82L10.89 14.83L10.9 14.85L10.9 14.86L10.91 14.87L10.92 14.89L10.92 14.9L10.93 14.91L10.93 14.93L10.94 14.94L10.95 14.96L10.96 14.97L10.96 14.98L10.97 15L10.98 15.01L10.99 15.03L11.51 15.93L11.5 15.95L11.42 16.13L11.34 16.31L11.26 16.49L11.2 16.68L11.17 16.76L10.16 17.03L10.14 17.04L10.13 17.04L10.11 17.04L10.1 17.05L10.08 17.05L10.07 17.06L10.05 17.06L10.04 17.07L10.02 17.07L10.01 17.08L10 17.08L9.98 17.09L9.97 17.09L9.96 17.1L9.94 17.11L9.93 17.11L9.92 17.12L9.91 17.13L9.9 17.13L9.89 17.14L9.87 17.15L9.86 17.16L9.86 17.17L9.85 17.17L9.84 17.18L9.83 17.19L9.82 17.2L9.81 17.21L9.81 17.22L9.8 17.23L9.8 17.24L9.79 17.25L9.79 17.26L9.78 17.27L9.78 17.28L9.78 17.29L9.77 17.31L9.77 17.32L9.77 17.33L9.77 17.34L9.77 19.21L9.77 19.22L9.77 19.24L9.77 19.25L9.78 19.26L9.78 19.27L9.78 19.28L9.79 19.29L9.79 19.3L9.8 19.31L9.8 19.32L9.81 19.33L9.81 19.34L9.82 19.35L9.83 19.36L9.84 19.37L9.85 19.38L9.86 19.38L9.86 19.39L9.87 19.4L9.89 19.41L9.9 19.41L9.91 19.42L9.92 19.43L9.93 19.43L9.94 19.44L9.96 19.45L9.97 19.45L9.98 19.46L10 19.46L10.01 19.47L10.02 19.48L10.04 19.48L10.05 19.49L10.07 19.49L10.08 19.5L10.1 19.5L10.11 19.51L10.13 19.51L10.14 19.52L10.16 19.52L11.17 19.79L11.2 19.88L11.26 20.06L11.34 20.25L11.42 20.43L11.5 20.6L11.51 20.62L10.99 21.53L10.98 21.54L10.97 21.55L10.96 21.57L10.96 21.58L10.95 21.6L10.94 21.61L10.93 21.62L10.93 21.64L10.92 21.65L10.92 21.67L10.91 21.68L10.9 21.69L10.9 21.71L10.89 21.72L10.89 21.73L10.89 21.75L10.88 21.76L10.88 21.77L10.88 21.79L10.87 21.8L10.87 21.81L10.87 21.82L10.87 21.84L10.87 21.85L10.87 21.86L10.87 21.87L10.87 21.88L10.87 21.9L10.87 21.91L10.88 21.92L10.88 21.93L10.88 21.94L10.89 21.95L10.89 21.96L10.9 21.97L10.9 21.98L10.91 21.99L10.92 22L10.93 22.01L10.93 22.02L12.26 23.34L12.27 23.35L12.27 23.36L12.28 23.37L12.29 23.37L12.3 23.38L12.31 23.38L12.32 23.39L12.34 23.39L12.35 23.4L12.36 23.4L12.37 23.4L12.38 23.4L12.39 23.41L12.4 23.41L12.41 23.41L12.43 23.41L12.44 23.4L12.45 23.4L12.46 23.4L12.47 23.4L12.49 23.4L12.5 23.39L12.51 23.39L12.53 23.39L12.54 23.38L12.55 23.38L12.57 23.37L12.58 23.37L12.59 23.36L12.61 23.36L12.62 23.35L12.63 23.34L12.65 23.34L12.66 23.33L12.68 23.32L12.69 23.32L12.71 23.31L12.72 23.3L12.74 23.3L12.75 23.29L13.66 22.76L13.67 22.77L13.85 22.86L14.03 22.94L14.21 23.01L14.4 23.08L14.48 23.11L14.75 24.12L14.76 24.13L14.76 24.15L14.77 24.16L14.78 24.18L14.78 24.2L14.79 24.21L14.79 24.23L14.8 24.24L14.8 24.25L14.81 24.27L14.81 24.28L14.82 24.3L14.83 24.31L14.83 24.32L14.84 24.33L14.84 24.35L14.85 24.36L14.86 24.37L14.86 24.38L14.87 24.39L14.88 24.4L14.89 24.41L14.89 24.42L14.9 24.43L14.91 24.44L14.92 24.45L14.93 24.46L14.94 24.46L14.94 24.47L14.95 24.48L14.96 24.48L14.97 24.49L14.98 24.49L14.99 24.5L15.01 24.5L15.02 24.5L15.03 24.5L15.04 24.51L15.05 24.51L15.07 24.51L16.93 24.51L16.95 24.51L16.96 24.51L16.97 24.5L16.98 24.5L17 24.5L17.01 24.5L17.02 24.49L17.03 24.49L17.04 24.48L17.05 24.48L17.06 24.47L17.07 24.46L17.08 24.46L17.09 24.45L17.1 24.44L17.1 24.43L17.11 24.42L17.12 24.41L17.13 24.4L17.14 24.39L17.14 24.38L17.15 24.37L17.16 24.36L17.16 24.35L17.17 24.33L17.18 24.32L17.18 24.31L17.19 24.3L17.19 24.28L17.2 24.27L17.21 24.25L17.21 24.24L17.22 24.23L17.22 24.21L17.23 24.2L17.23 24.18L17.23 24.16L17.24 24.15L17.24 24.13L17.25 24.12L17.52 23.11L17.6 23.08L17.79 23.01L17.97 22.94L18.15 22.86L18.33 22.77L18.35 22.76L19.25 23.28L19.26 23.29L19.28 23.3L19.29 23.31L19.3 23.32L19.32 23.32L19.33 23.33L19.35 23.34L19.36 23.35L19.37 23.35L19.39 23.36L19.4 23.36L19.41 23.37L19.43 23.38L19.44 23.38L19.46 23.38L19.47 23.39L19.48 23.39L19.49 23.4L19.51 23.4L19.52 23.4L19.53 23.4L19.55 23.4L19.56 23.41L19.57 23.41L19.58 23.41L19.59 23.41L19.61 23.4L19.62 23.4L19.63 23.4L19.64 23.4L19.65 23.39L19.66 23.39L19.67 23.39L19.68 23.38L19.7 23.38L19.71 23.37L19.72 23.36L19.73 23.36L19.73 23.35L19.74 23.34L21.07 22.02L21.07 22.01L21.08 22L21.09 21.99L21.1 21.98L21.1 21.97L21.11 21.96L21.11 21.95L21.12 21.94L21.12 21.93L21.12 21.92L21.12 21.91L21.13 21.9L21.13 21.88L21.13 21.87L21.13 21.86L21.13 21.85L21.13 21.84L21.13 21.82L21.12 21.81L21.12 21.8L21.12 21.79L21.12 21.77L21.11 21.76L21.11 21.75L21.1 21.74L21.1 21.72L21.1 21.71L21.09 21.7L21.08 21.68L21.08 21.67L21.07 21.65L21.07 21.64L21.06 21.63L21.05 21.61L21.05 21.6L21.04 21.58L21.03 21.57L21.03 21.55L21.02 21.54L21.01 21.52L20.49 20.62L20.5 20.6L20.58 20.43L20.66 20.25L20.74 20.06L20.8 19.88L20.83 19.79L21.84 19.52L21.86 19.52L21.87 19.51L21.89 19.51L21.9 19.5L21.92 19.5L21.93 19.49L21.95 19.49L21.96 19.48L21.98 19.48L21.99 19.47L22 19.46L22.02 19.46L22.03 19.45L22.04 19.45L22.06 19.44L22.07 19.43L22.08 19.43L22.09 19.42L22.1 19.41L22.11 19.41L22.13 19.4L22.14 19.39L22.14 19.38L22.15 19.38L22.16 19.37L22.17 19.36L22.18 19.35L22.19 19.34L22.19 19.33L22.2 19.32L22.2 19.31L22.21 19.3L22.21 19.29L22.22 19.28L22.22 19.27L22.22 19.26L22.23 19.25L22.23 19.24L22.23 19.22L22.23 19.21L22.23 17.34L22.23 17.33L22.23 17.32L22.23 17.31L22.22 17.29L22.22 17.28L22.22 17.27L22.21 17.26L22.21 17.25L22.2 17.24L22.2 17.23L22.19 17.22L22.19 17.21L22.18 17.2L22.17 17.19L22.16 17.18L22.15 17.17L22.14 17.17L22.14 17.16L22.13 17.15L22.11 17.14L22.1 17.13L22.09 17.13L22.08 17.12L22.07 17.11L22.06 17.11L22.04 17.1L22.03 17.09L22.02 17.09L22 17.08L21.99 17.08L21.98 17.07L21.96 17.07L21.95 17.06L21.93 17.06L21.92 17.05L21.9 17.05L21.89 17.04L21.87 17.04L21.86 17.04L21.84 17.03L20.83 16.76L20.8 16.68L20.74 16.49L20.66 16.31L20.58 16.13L20.5 15.95L20.49 15.93L21.01 15.03L21.02 15.01L21.03 15L21.03 14.98L21.04 14.97L21.05 14.96L21.05 14.94L21.06 14.93L21.07 14.91L21.07 14.9L21.08 14.88L21.08 14.87L21.09 14.86L21.1 14.84L21.1 14.83L21.1 14.82L21.11 14.8L21.11 14.79L21.12 14.78L21.12 14.76L21.12 14.75L21.12 14.74L21.13 14.73L21.13 14.71L21.13 14.7L21.13 14.69L21.13 14.68L21.13 14.67L21.13 14.66L21.12 14.65L21.12 14.63L21.12 14.62L21.12 14.61L21.11 14.6L21.11 14.59L21.1 14.58L21.1 14.57L21.09 14.56L21.08 14.55L21.07 14.54L21.07 14.53L19.74 13.21L19.73 13.2L19.73 13.2L19.72 13.19L19.71 13.18L19.7 13.18L19.68 13.17L19.67 13.16L19.66 13.16L19.65 13.16L19.64 13.15L19.63 13.15L19.62 13.15L19.61 13.15L19.59 13.15L19.58 13.15L19.57 13.15L19.56 13.15L19.55 13.15L19.53 13.15L19.52 13.15L19.51 13.15L19.49 13.16L19.48 13.16L19.47 13.16L19.46 13.17L19.44 13.17L19.43 13.18L19.41 13.18L19.4 13.19L19.39 13.19L19.37 13.2L19.36 13.21L19.35 13.21L19.33 13.22L19.32 13.23L19.3 13.23L19.29 13.24L19.28 13.25L19.26 13.26L19.25 13.27L18.34 13.79L18.33 13.78L18.15 13.69L17.97 13.61L17.79 13.54L17.6 13.47L17.52 13.45L17.25 12.44L17.24 12.42L17.24 12.41L17.23 12.39L17.23 12.38L17.23 12.36L17.22 12.34L17.22 12.33L17.21 12.32L17.21 12.3L17.2 12.29L17.19 12.27L17.19 12.26L17.18 12.25L17.18 12.23L17.17 12.22L17.16 12.21L17.16 12.2L17.15 12.18L17.14 12.17L17.14 12.16L17.13 12.15L17.12 12.14L17.11 12.13L17.1 12.12L17.1 12.12L17.09 12.11L17.08 12.1L17.07 12.09L17.06 12.09L17.05 12.08L17.04 12.07L17.03 12.07L17.02 12.06L17.01 12.06L17 12.06L16.98 12.05L16.97 12.05L16.96 12.05L16.95 12.05L16.93 12.05L15.07 12.05L15.05 12.05L15.04 12.05ZM16.22 15.56L16.33 15.57L16.44 15.59L16.55 15.61L16.65 15.63L16.76 15.66L16.86 15.69L16.96 15.73L17.06 15.77L17.16 15.81L17.25 15.86L17.35 15.91L17.44 15.96L17.52 16.02L17.61 16.08L17.69 16.14L17.77 16.21L17.85 16.28L17.93 16.35L18 16.43L18.07 16.5L18.14 16.58L18.2 16.67L18.26 16.75L18.32 16.84L18.37 16.93L18.42 17.03L18.47 17.12L18.51 17.22L18.55 17.32L18.59 17.42L18.62 17.52L18.65 17.62L18.67 17.73L18.69 17.84L18.7 17.94L18.72 18.05L18.72 18.17L18.73 18.28L18.72 18.39L18.72 18.5L18.7 18.61L18.69 18.72L18.67 18.83L18.65 18.93L18.62 19.04L18.59 19.14L18.55 19.24L18.51 19.34L18.47 19.44L18.42 19.53L18.37 19.62L18.32 19.71L18.26 19.8L18.2 19.89L18.14 19.97L18.07 20.05L18 20.13L17.93 20.2L17.85 20.28L17.77 20.35L17.69 20.41L17.61 20.48L17.52 20.54L17.44 20.59L17.35 20.65L17.25 20.7L17.16 20.75L17.06 20.79L16.96 20.83L16.86 20.86L16.76 20.9L16.65 20.92L16.55 20.95L16.44 20.97L16.33 20.98L16.22 20.99L16.11 21L16 21L15.89 21L15.78 20.99L15.67 20.98L15.56 20.97L15.45 20.95L15.35 20.92L15.24 20.9L15.14 20.86L15.04 20.83L14.94 20.79L14.84 20.75L14.75 20.7L14.65 20.65L14.56 20.59L14.48 20.54L14.39 20.48L14.31 20.41L14.23 20.35L14.15 20.28L14.07 20.2L14 20.13L13.93 20.05L13.86 19.97L13.8 19.89L13.74 19.8L13.68 19.71L13.63 19.62L13.58 19.53L13.53 19.44L13.49 19.34L13.45 19.24L13.41 19.14L13.38 19.04L13.35 18.93L13.33 18.83L13.31 18.72L13.3 18.61L13.28 18.5L13.28 18.39L13.27 18.28L13.28 18.17L13.28 18.05L13.3 17.94L13.31 17.84L13.33 17.73L13.35 17.62L13.38 17.52L13.41 17.42L13.45 17.32L13.49 17.22L13.53 17.12L13.58 17.03L13.63 16.93L13.68 16.84L13.74 16.75L13.8 16.67L13.86 16.58L13.93 16.5L14 16.43L14.07 16.35L14.15 16.28L14.23 16.21L14.31 16.14L14.39 16.08L14.48 16.02L14.56 15.96L14.65 15.91L14.75 15.86L14.84 15.81L14.94 15.77L15.04 15.73L15.14 15.69L15.24 15.66L15.35 15.63L15.45 15.61L15.56 15.59L15.67 15.57L15.78 15.56L15.89 15.55L16 15.55L16.11 15.55L16.22 15.56Z" id="anunnuXzP"></path><radialGradient id="gradientc7VMvf6IkJ" gradientUnits="userSpaceOnUse" cx="16" cy="18.28" dx="16.88" dy="21.75" r="3.58"><stop style="stop-color: #fcba03;stop-opacity: 1" offset="0%"></stop><stop style="stop-color: #ffffff;stop-opacity: 1" offset="100%"></stop></radialGradient></defs><g><g><g><use xlink:href="#a6n93KrRhf" opacity="1" fill="url(#gradienta4Af83hen)"></use></g><g><use xlink:href="#anunnuXzP" opacity="1" fill="url(#gradientc7VMvf6IkJ)"></use></g></g></g></svg>