<?xml version="1.0" encoding="UTF-8" standalone="no"?>
<!DOCTYPE svg PUBLIC "-//W3C//DTD SVG 1.1//EN" "http://www.w3.org/Graphics/SVG/1.1/DTD/svg11.dtd">
<svg version="1.1" xmlns="http://www.w3.org/2000/svg" xmlns:xlink="http://www.w3.org/1999/xlink" preserveAspectRatio="xMidYMid meet" viewBox="0 0 32 32" width="32" height="32"><defs><path d="M19.32 4.23C23.5 4.23 26.89 8.44 26.89 13.63C26.89 13.83 26.88 14.02 26.87 14.22C29.89 15.01 32.12 17.65 32.12 20.79C32.12 20.79 32.12 20.79 32.12 20.79C32.12 24.56 28.93 27.61 24.99 27.61C23.21 27.61 8.91 27.61 7.12 27.61C3.19 27.61 0 24.56 0 20.79C0 20.79 0 20.79 0 20.79C0 17.51 2.42 14.77 5.65 14.12C5.94 10.56 8.36 7.78 11.3 7.78C11.95 7.78 12.57 7.92 13.15 8.17C14.52 5.78 16.77 4.23 19.32 4.23Z" id="a6n93KrRhf"></path><radialGradient id="gradienta4Af83hen" gradientUnits="userSpaceOnUse" cx="15.74" cy="16.62" dx="-2.91" dy="43.76" r="32.93"><stop style="stop-color: #fcba03;stop-opacity: 1" offset="0%"></stop><stop style="stop-color: #cc9602;stop-opacity: 1" offset="44.6359459346755%"></stop><stop style="stop-color: #906a00;stop-opacity: 1" offset="100%"></stop></radialGradient><path d="M11.99 12.45L11.98 12.45L11.96 12.45L11.95 12.46L11.94 12.46L11.93 12.46L11.91 12.47L11.9 12.48L11.89 12.48L11.88 12.49L11.87 12.5L11.86 12.5L11.85 12.51L11.84 12.52L11.83 12.53L11.82 12.54L11.81 12.55L11.81 12.56L11.8 12.58L11.79 12.59L11.78 12.6L11.77 12.61L11.77 12.63L11.76 12.64L11.75 12.65L11.75 12.67L11.74 12.68L11.73 12.7L11.73 12.72L11.72 12.73L11.71 12.75L11.71 12.76L11.7 12.78L11.7 12.8L11.69 12.81L11.68 12.83L11.68 12.85L11.67 12.87L11.67 12.89L11.36 14.03L11.27 14.06L11.06 14.13L10.85 14.21L10.65 14.3L10.45 14.4L10.43 14.41L9.41 13.82L9.39 13.81L9.37 13.8L9.36 13.79L9.34 13.78L9.32 13.78L9.31 13.77L9.29 13.76L9.28 13.75L9.26 13.75L9.24 13.74L9.23 13.73L9.21 13.73L9.2 13.72L9.18 13.72L9.17 13.71L9.15 13.71L9.14 13.7L9.12 13.7L9.11 13.69L9.09 13.69L9.08 13.69L9.07 13.69L9.05 13.69L9.04 13.68L9.03 13.68L9.01 13.68L9 13.69L8.99 13.69L8.97 13.69L8.96 13.69L8.95 13.69L8.94 13.7L8.93 13.7L8.91 13.71L8.9 13.71L8.89 13.72L8.88 13.73L8.87 13.74L8.86 13.75L8.85 13.76L7.36 15.25L7.35 15.26L7.34 15.27L7.33 15.28L7.32 15.29L7.32 15.3L7.31 15.31L7.3 15.32L7.3 15.34L7.3 15.35L7.29 15.36L7.29 15.37L7.29 15.39L7.28 15.4L7.28 15.41L7.28 15.43L7.28 15.44L7.28 15.45L7.28 15.47L7.29 15.48L7.29 15.5L7.29 15.51L7.29 15.53L7.3 15.54L7.3 15.56L7.31 15.57L7.31 15.59L7.32 15.6L7.32 15.62L7.33 15.63L7.34 15.65L7.34 15.66L7.35 15.68L7.36 15.69L7.37 15.71L7.37 15.73L7.38 15.74L7.39 15.76L7.4 15.77L7.41 15.79L7.42 15.8L8.01 16.83L8 16.85L7.9 17.05L7.81 17.25L7.73 17.46L7.65 17.67L7.62 17.76L6.48 18.07L6.47 18.07L6.45 18.08L6.43 18.08L6.41 18.09L6.4 18.09L6.38 18.1L6.36 18.1L6.35 18.11L6.33 18.11L6.31 18.12L6.3 18.12L6.28 18.13L6.27 18.14L6.25 18.14L6.24 18.15L6.23 18.16L6.21 18.17L6.2 18.17L6.19 18.18L6.17 18.19L6.16 18.2L6.15 18.21L6.14 18.22L6.13 18.23L6.12 18.24L6.11 18.25L6.1 18.26L6.09 18.27L6.09 18.28L6.08 18.29L6.07 18.3L6.07 18.31L6.06 18.32L6.06 18.34L6.05 18.35L6.05 18.36L6.05 18.38L6.05 18.39L6.05 18.4L6.05 18.42L6.05 20.53L6.05 20.54L6.05 20.55L6.05 20.57L6.05 20.58L6.05 20.59L6.06 20.61L6.06 20.62L6.07 20.63L6.07 20.64L6.08 20.65L6.09 20.66L6.09 20.67L6.1 20.68L6.11 20.69L6.12 20.7L6.13 20.71L6.14 20.72L6.15 20.73L6.16 20.74L6.17 20.74L6.19 20.75L6.2 20.76L6.21 20.77L6.23 20.78L6.24 20.78L6.25 20.79L6.27 20.8L6.28 20.8L6.3 20.81L6.31 20.82L6.33 20.82L6.35 20.83L6.36 20.84L6.38 20.84L6.4 20.85L6.41 20.85L6.43 20.86L6.45 20.87L6.47 20.87L6.48 20.88L7.62 21.18L7.65 21.28L7.73 21.49L7.81 21.69L7.9 21.9L8 22.1L8.01 22.12L7.42 23.14L7.41 23.15L7.4 23.17L7.39 23.18L7.38 23.2L7.37 23.21L7.37 23.23L7.36 23.25L7.35 23.26L7.34 23.28L7.34 23.29L7.33 23.31L7.32 23.32L7.32 23.34L7.31 23.35L7.31 23.37L7.3 23.38L7.3 23.4L7.29 23.41L7.29 23.43L7.29 23.44L7.29 23.46L7.28 23.47L7.28 23.49L7.28 23.5L7.28 23.51L7.28 23.53L7.28 23.54L7.29 23.55L7.29 23.57L7.29 23.58L7.3 23.59L7.3 23.6L7.3 23.62L7.31 23.63L7.32 23.64L7.32 23.65L7.33 23.66L7.34 23.67L7.35 23.68L7.36 23.69L8.85 25.18L8.86 25.19L8.87 25.2L8.88 25.21L8.89 25.22L8.9 25.23L8.91 25.23L8.93 25.24L8.94 25.24L8.95 25.25L8.96 25.25L8.97 25.25L8.99 25.25L9 25.25L9.01 25.26L9.03 25.26L9.04 25.26L9.05 25.25L9.07 25.25L9.08 25.25L9.09 25.25L9.11 25.25L9.12 25.24L9.14 25.24L9.15 25.23L9.17 25.23L9.18 25.22L9.2 25.22L9.21 25.21L9.23 25.21L9.24 25.2L9.26 25.19L9.28 25.19L9.29 25.18L9.31 25.17L9.32 25.16L9.34 25.16L9.36 25.15L9.37 25.14L9.39 25.13L9.41 25.12L10.43 24.53L10.45 24.54L10.65 24.64L10.85 24.73L11.06 24.81L11.27 24.89L11.36 24.92L11.67 26.06L11.67 26.08L11.68 26.09L11.68 26.11L11.69 26.13L11.7 26.15L11.7 26.16L11.71 26.18L11.71 26.2L11.72 26.21L11.73 26.23L11.73 26.24L11.74 26.26L11.75 26.27L11.75 26.29L11.76 26.3L11.77 26.32L11.77 26.33L11.78 26.34L11.79 26.36L11.8 26.37L11.81 26.38L11.81 26.39L11.82 26.4L11.83 26.41L11.84 26.42L11.85 26.43L11.86 26.44L11.87 26.45L11.88 26.46L11.89 26.46L11.9 26.47L11.91 26.47L11.93 26.48L11.94 26.48L11.95 26.49L11.96 26.49L11.98 26.49L11.99 26.5L12 26.5L12.02 26.5L14.12 26.5L14.14 26.5L14.15 26.5L14.17 26.49L14.18 26.49L14.19 26.49L14.21 26.48L14.22 26.48L14.23 26.47L14.24 26.47L14.25 26.46L14.26 26.46L14.28 26.45L14.29 26.44L14.3 26.43L14.31 26.42L14.32 26.41L14.33 26.4L14.33 26.39L14.34 26.38L14.35 26.37L14.36 26.36L14.37 26.34L14.38 26.33L14.38 26.32L14.39 26.3L14.4 26.29L14.41 26.27L14.41 26.26L14.42 26.24L14.42 26.23L14.43 26.21L14.44 26.2L14.44 26.18L14.45 26.16L14.45 26.15L14.46 26.13L14.46 26.11L14.47 26.09L14.47 26.08L14.48 26.06L14.78 24.92L14.87 24.89L15.09 24.81L15.29 24.73L15.5 24.64L15.69 24.54L15.72 24.53L16.73 25.12L16.75 25.13L16.77 25.14L16.78 25.15L16.8 25.16L16.81 25.16L16.83 25.17L16.84 25.18L16.86 25.19L16.88 25.2L16.89 25.2L16.91 25.21L16.92 25.22L16.94 25.22L16.95 25.23L16.97 25.23L16.98 25.24L17 25.24L17.01 25.24L17.03 25.25L17.04 25.25L17.06 25.25L17.07 25.25L17.08 25.25L17.1 25.26L17.11 25.26L17.13 25.26L17.14 25.25L17.15 25.25L17.16 25.25L17.18 25.25L17.19 25.24L17.2 25.24L17.21 25.23L17.23 25.23L17.24 25.22L17.25 25.22L17.26 25.21L17.27 25.2L17.28 25.19L17.29 25.18L18.78 23.69L18.79 23.68L18.8 23.67L18.81 23.66L18.82 23.65L18.82 23.64L18.83 23.62L18.84 23.61L18.84 23.6L18.84 23.59L18.85 23.58L18.85 23.56L18.85 23.55L18.85 23.54L18.85 23.53L18.85 23.51L18.85 23.5L18.85 23.49L18.85 23.47L18.85 23.46L18.85 23.44L18.84 23.43L18.84 23.42L18.84 23.4L18.83 23.39L18.83 23.37L18.82 23.36L18.82 23.34L18.81 23.33L18.81 23.31L18.8 23.3L18.79 23.28L18.79 23.26L18.78 23.25L18.77 23.23L18.76 23.21L18.75 23.2L18.75 23.18L18.74 23.17L18.73 23.15L18.72 23.13L18.13 22.11L18.14 22.1L18.24 21.9L18.33 21.69L18.41 21.49L18.49 21.28L18.52 21.18L19.66 20.88L19.67 20.87L19.69 20.87L19.71 20.86L19.73 20.85L19.75 20.85L19.76 20.84L19.78 20.84L19.8 20.83L19.81 20.82L19.83 20.82L19.84 20.81L19.86 20.8L19.87 20.8L19.89 20.79L19.9 20.78L19.92 20.78L19.93 20.77L19.94 20.76L19.95 20.75L19.97 20.74L19.98 20.74L19.99 20.73L20 20.72L20.01 20.71L20.02 20.7L20.03 20.69L20.04 20.68L20.05 20.67L20.05 20.66L20.06 20.65L20.07 20.64L20.07 20.63L20.08 20.62L20.08 20.61L20.09 20.59L20.09 20.58L20.09 20.57L20.09 20.55L20.1 20.54L20.1 20.53L20.1 18.42L20.1 18.4L20.09 18.39L20.09 18.38L20.09 18.36L20.09 18.35L20.08 18.34L20.08 18.32L20.07 18.31L20.07 18.3L20.06 18.29L20.05 18.28L20.05 18.27L20.04 18.26L20.03 18.25L20.02 18.24L20.01 18.23L20 18.22L19.99 18.21L19.98 18.2L19.97 18.19L19.95 18.18L19.94 18.17L19.93 18.17L19.92 18.16L19.9 18.15L19.89 18.14L19.87 18.14L19.86 18.13L19.84 18.12L19.83 18.12L19.81 18.11L19.8 18.11L19.78 18.1L19.76 18.1L19.75 18.09L19.73 18.09L19.71 18.08L19.69 18.08L19.67 18.07L19.66 18.07L18.52 17.76L18.49 17.67L18.41 17.46L18.33 17.25L18.24 17.05L18.14 16.85L18.13 16.83L18.72 15.81L18.73 15.79L18.74 15.77L18.75 15.76L18.75 15.74L18.76 15.72L18.77 15.71L18.78 15.69L18.79 15.68L18.79 15.66L18.8 15.64L18.81 15.63L18.81 15.61L18.82 15.6L18.82 15.58L18.83 15.57L18.83 15.55L18.84 15.54L18.84 15.52L18.84 15.51L18.85 15.5L18.85 15.48L18.85 15.47L18.85 15.45L18.85 15.44L18.85 15.43L18.85 15.41L18.85 15.4L18.85 15.39L18.85 15.38L18.85 15.36L18.84 15.35L18.84 15.34L18.84 15.33L18.83 15.32L18.82 15.3L18.82 15.29L18.81 15.28L18.8 15.27L18.79 15.26L18.78 15.25L17.29 13.76L17.28 13.75L17.27 13.74L17.26 13.73L17.25 13.72L17.24 13.72L17.23 13.71L17.21 13.71L17.2 13.7L17.19 13.7L17.18 13.69L17.16 13.69L17.15 13.69L17.14 13.69L17.13 13.68L17.11 13.68L17.1 13.68L17.08 13.68L17.07 13.69L17.06 13.69L17.04 13.69L17.03 13.69L17.01 13.7L17 13.7L16.98 13.7L16.97 13.71L16.95 13.71L16.94 13.72L16.92 13.72L16.91 13.73L16.89 13.74L16.88 13.74L16.86 13.75L16.84 13.76L16.83 13.77L16.81 13.78L16.8 13.78L16.78 13.79L16.77 13.8L16.75 13.81L16.73 13.82L15.71 14.41L15.69 14.4L15.5 14.3L15.29 14.21L15.09 14.13L14.87 14.06L14.78 14.03L14.48 12.89L14.47 12.87L14.47 12.85L14.46 12.83L14.46 12.81L14.45 12.8L14.45 12.78L14.44 12.76L14.44 12.75L14.43 12.73L14.42 12.72L14.42 12.7L14.41 12.68L14.41 12.67L14.4 12.65L14.39 12.64L14.38 12.63L14.38 12.61L14.37 12.6L14.36 12.59L14.35 12.58L14.34 12.56L14.33 12.55L14.33 12.54L14.32 12.53L14.31 12.52L14.3 12.51L14.29 12.5L14.28 12.5L14.26 12.49L14.25 12.48L14.24 12.48L14.23 12.47L14.22 12.46L14.21 12.46L14.19 12.46L14.18 12.45L14.17 12.45L14.15 12.45L14.14 12.45L14.12 12.45L12.02 12.45L12 12.45L11.99 12.45ZM13.32 16.41L13.45 16.42L13.57 16.44L13.69 16.46L13.81 16.49L13.93 16.52L14.04 16.56L14.16 16.6L14.27 16.64L14.38 16.69L14.48 16.74L14.59 16.8L14.69 16.86L14.79 16.92L14.89 16.99L14.98 17.06L15.07 17.14L15.16 17.22L15.24 17.3L15.33 17.38L15.4 17.47L15.48 17.56L15.55 17.66L15.62 17.75L15.68 17.85L15.74 17.96L15.8 18.06L15.85 18.17L15.9 18.28L15.95 18.39L15.99 18.5L16.02 18.62L16.05 18.73L16.08 18.85L16.1 18.97L16.12 19.1L16.13 19.22L16.14 19.35L16.14 19.47L16.14 19.6L16.13 19.72L16.12 19.85L16.1 19.97L16.08 20.09L16.05 20.21L16.02 20.33L15.99 20.44L15.95 20.56L15.9 20.67L15.85 20.78L15.8 20.88L15.74 20.99L15.68 21.09L15.62 21.19L15.55 21.29L15.48 21.38L15.4 21.47L15.33 21.56L15.24 21.65L15.16 21.73L15.07 21.81L14.98 21.88L14.89 21.95L14.79 22.02L14.69 22.08L14.59 22.15L14.48 22.2L14.38 22.26L14.27 22.3L14.16 22.35L14.04 22.39L13.93 22.42L13.81 22.46L13.69 22.48L13.57 22.51L13.45 22.52L13.32 22.54L13.2 22.54L13.07 22.55L12.94 22.54L12.82 22.54L12.69 22.52L12.57 22.51L12.45 22.48L12.33 22.46L12.21 22.42L12.1 22.39L11.99 22.35L11.87 22.3L11.77 22.26L11.66 22.2L11.55 22.15L11.45 22.08L11.35 22.02L11.26 21.95L11.16 21.88L11.07 21.81L10.98 21.73L10.9 21.65L10.82 21.56L10.74 21.47L10.66 21.38L10.59 21.29L10.52 21.19L10.46 21.09L10.4 20.99L10.34 20.88L10.29 20.78L10.24 20.67L10.19 20.56L10.15 20.44L10.12 20.33L10.09 20.21L10.06 20.09L10.04 19.97L10.02 19.85L10.01 19.72L10 19.6L10 19.47L10 19.35L10.01 19.22L10.02 19.1L10.04 18.97L10.06 18.85L10.09 18.73L10.12 18.62L10.15 18.5L10.19 18.39L10.24 18.28L10.29 18.17L10.34 18.06L10.4 17.96L10.46 17.85L10.52 17.75L10.59 17.66L10.66 17.56L10.74 17.47L10.82 17.38L10.9 17.3L10.98 17.22L11.07 17.14L11.16 17.06L11.26 16.99L11.35 16.92L11.45 16.86L11.55 16.8L11.66 16.74L11.77 16.69L11.87 16.64L11.99 16.6L12.1 16.56L12.21 16.52L12.33 16.49L12.45 16.46L12.57 16.44L12.69 16.42L12.82 16.41L12.94 16.4L13.07 16.4L13.2 16.4L13.32 16.41Z" id="c1eTCt6SZe"></path><radialGradient id="gradientc4HXRLFoNW" gradientUnits="userSpaceOnUse" cx="13.07" cy="19.47" dx="14.06" dy="23.39" r="4.04"><stop style="stop-color: #fcba03;stop-opacity: 1" offset="0%"></stop><stop style="stop-color: #ffffff;stop-opacity: 1" offset="100%"></stop></radialGradient></defs><g><g><g><use xlink:href="#a6n93KrRhf" opacity="1" fill="url(#gradienta4Af83hen)"></use></g><g><use xlink:href="#c1eTCt6SZe" opacity="1" fill="url(#gradientc4HXRLFoNW)"></use></g></g></g></svg>