<?xml version="1.0" encoding="UTF-8" standalone="no"?>
<!DOCTYPE svg PUBLIC "-//W3C//DTD SVG 1.1//EN" "http://www.w3.org/Graphics/SVG/1.1/DTD/svg11.dtd">
<svg version="1.1" xmlns="http://www.w3.org/2000/svg" xmlns:xlink="http://www.w3.org/1999/xlink" preserveAspectRatio="xMidYMid meet" viewBox="0 0 32 32" width="32" height="32"><defs><path d="M19.32 4.23C23.5 4.23 26.89 8.44 26.89 13.63C26.89 13.83 26.88 14.02 26.87 14.22C29.89 15.01 32.12 17.65 32.12 20.79C32.12 20.79 32.12 20.79 32.12 20.79C32.12 24.56 28.93 27.61 24.99 27.61C23.21 27.61 8.91 27.61 7.12 27.61C3.19 27.61 0 24.56 0 20.79C0 20.79 0 20.79 0 20.79C0 17.51 2.42 14.77 5.65 14.12C5.94 10.56 8.36 7.78 11.3 7.78C11.95 7.78 12.57 7.92 13.15 8.17C14.52 5.78 16.77 4.23 19.32 4.23Z" id="a6n93KrRhf"></path><radialGradient id="gradienta4Af83hen" gradientUnits="userSpaceOnUse" cx="15.74" cy="16.62" dx="-2.91" dy="43.76" r="32.93"><stop style="stop-color: #fcba03;stop-opacity: 1" offset="0%"></stop><stop style="stop-color: #cc9602;stop-opacity: 1" offset="44.6359459346755%"></stop><stop style="stop-color: #906a00;stop-opacity: 1" offset="100%"></stop></radialGradient><path d="M11.99 13.56L11.98 13.56L11.96 13.57L11.95 13.57L11.94 13.57L11.93 13.58L11.91 13.58L11.9 13.59L11.89 13.6L11.88 13.6L11.87 13.61L11.86 13.62L11.85 13.63L11.84 13.64L11.83 13.65L11.82 13.66L11.81 13.67L11.81 13.68L11.8 13.69L11.79 13.7L11.78 13.72L11.77 13.73L11.77 13.74L11.76 13.76L11.75 13.77L11.75 13.78L11.74 13.8L11.73 13.81L11.73 13.83L11.72 13.85L11.71 13.86L11.71 13.88L11.7 13.9L11.7 13.91L11.69 13.93L11.68 13.95L11.68 13.96L11.67 13.98L11.67 14L11.36 15.14L11.27 15.17L11.06 15.24L10.85 15.33L10.65 15.42L10.45 15.52L10.43 15.52L9.41 14.93L9.39 14.92L9.37 14.91L9.36 14.91L9.34 14.9L9.32 14.89L9.31 14.88L9.29 14.88L9.28 14.87L9.26 14.86L9.24 14.85L9.23 14.85L9.21 14.84L9.2 14.84L9.18 14.83L9.17 14.83L9.15 14.82L9.14 14.82L9.12 14.81L9.11 14.81L9.09 14.81L9.08 14.8L9.07 14.8L9.05 14.8L9.04 14.8L9.03 14.8L9.01 14.8L9 14.8L8.99 14.8L8.97 14.8L8.96 14.81L8.95 14.81L8.94 14.81L8.93 14.82L8.91 14.82L8.9 14.83L8.89 14.84L8.88 14.84L8.87 14.85L8.86 14.86L8.85 14.87L7.36 16.36L7.35 16.37L7.34 16.38L7.33 16.39L7.32 16.4L7.32 16.41L7.31 16.43L7.3 16.44L7.3 16.45L7.3 16.46L7.29 16.48L7.29 16.49L7.29 16.5L7.28 16.51L7.28 16.53L7.28 16.54L7.28 16.56L7.28 16.57L7.28 16.58L7.29 16.6L7.29 16.61L7.29 16.63L7.29 16.64L7.3 16.66L7.3 16.67L7.31 16.69L7.31 16.7L7.32 16.72L7.32 16.73L7.33 16.75L7.34 16.76L7.34 16.78L7.35 16.79L7.36 16.81L7.37 16.82L7.37 16.84L7.38 16.86L7.39 16.87L7.4 16.89L7.41 16.9L7.42 16.92L8.01 17.94L8 17.96L7.9 18.16L7.81 18.36L7.73 18.57L7.65 18.78L7.62 18.88L6.48 19.18L6.47 19.19L6.45 19.19L6.43 19.2L6.41 19.2L6.4 19.2L6.38 19.21L6.36 19.22L6.35 19.22L6.33 19.23L6.31 19.23L6.3 19.24L6.28 19.25L6.27 19.25L6.25 19.26L6.24 19.27L6.23 19.27L6.21 19.28L6.2 19.29L6.19 19.3L6.17 19.31L6.16 19.31L6.15 19.32L6.14 19.33L6.13 19.34L6.12 19.35L6.11 19.36L6.1 19.37L6.09 19.38L6.09 19.39L6.08 19.4L6.07 19.42L6.07 19.43L6.06 19.44L6.06 19.45L6.05 19.46L6.05 19.48L6.05 19.49L6.05 19.5L6.05 19.52L6.05 19.53L6.05 21.64L6.05 21.65L6.05 21.67L6.05 21.68L6.05 21.7L6.05 21.71L6.06 21.72L6.06 21.73L6.07 21.74L6.07 21.76L6.08 21.77L6.09 21.78L6.09 21.79L6.1 21.8L6.11 21.81L6.12 21.82L6.13 21.83L6.14 21.83L6.15 21.84L6.16 21.85L6.17 21.86L6.19 21.87L6.2 21.87L6.21 21.88L6.23 21.89L6.24 21.9L6.25 21.9L6.27 21.91L6.28 21.92L6.3 21.92L6.31 21.93L6.33 21.94L6.35 21.94L6.36 21.95L6.38 21.96L6.4 21.96L6.41 21.97L6.43 21.97L6.45 21.98L6.47 21.99L6.48 21.99L7.62 22.3L7.65 22.39L7.73 22.6L7.81 22.81L7.9 23.01L8 23.21L8.01 23.23L7.42 24.25L7.41 24.27L7.4 24.28L7.39 24.3L7.38 24.31L7.37 24.33L7.37 24.34L7.36 24.36L7.35 24.38L7.34 24.39L7.34 24.41L7.33 24.42L7.32 24.44L7.32 24.45L7.31 24.47L7.31 24.48L7.3 24.5L7.3 24.51L7.29 24.53L7.29 24.54L7.29 24.56L7.29 24.57L7.28 24.59L7.28 24.6L7.28 24.61L7.28 24.63L7.28 24.64L7.28 24.65L7.29 24.67L7.29 24.68L7.29 24.69L7.3 24.71L7.3 24.72L7.3 24.73L7.31 24.74L7.32 24.75L7.32 24.77L7.33 24.78L7.34 24.79L7.35 24.8L7.36 24.81L8.85 26.3L8.86 26.31L8.87 26.32L8.88 26.33L8.89 26.33L8.9 26.34L8.91 26.35L8.93 26.35L8.94 26.36L8.95 26.36L8.96 26.36L8.97 26.37L8.99 26.37L9 26.37L9.01 26.37L9.03 26.37L9.04 26.37L9.05 26.37L9.07 26.37L9.08 26.37L9.09 26.36L9.11 26.36L9.12 26.36L9.14 26.35L9.15 26.35L9.17 26.34L9.18 26.34L9.2 26.33L9.21 26.33L9.23 26.32L9.24 26.31L9.26 26.31L9.28 26.3L9.29 26.29L9.31 26.29L9.32 26.28L9.34 26.27L9.36 26.26L9.37 26.25L9.39 26.25L9.41 26.24L10.43 25.65L10.45 25.66L10.65 25.76L10.85 25.85L11.06 25.93L11.27 26L11.36 26.03L11.67 27.17L11.67 27.19L11.68 27.21L11.68 27.23L11.69 27.24L11.7 27.26L11.7 27.28L11.71 27.29L11.71 27.31L11.72 27.33L11.73 27.34L11.73 27.36L11.74 27.37L11.75 27.39L11.75 27.4L11.76 27.42L11.77 27.43L11.77 27.45L11.78 27.46L11.79 27.47L11.8 27.48L11.81 27.49L11.81 27.51L11.82 27.52L11.83 27.53L11.84 27.54L11.85 27.55L11.86 27.55L11.87 27.56L11.88 27.57L11.89 27.58L11.9 27.58L11.91 27.59L11.93 27.59L11.94 27.6L11.95 27.6L11.96 27.61L11.98 27.61L11.99 27.61L12 27.61L12.02 27.61L14.12 27.61L14.14 27.61L14.15 27.61L14.17 27.61L14.18 27.61L14.19 27.6L14.21 27.6L14.22 27.59L14.23 27.59L14.24 27.58L14.25 27.58L14.26 27.57L14.28 27.56L14.29 27.55L14.3 27.55L14.31 27.54L14.32 27.53L14.33 27.52L14.33 27.51L14.34 27.49L14.35 27.48L14.36 27.47L14.37 27.46L14.38 27.45L14.38 27.43L14.39 27.42L14.4 27.4L14.41 27.39L14.41 27.37L14.42 27.36L14.42 27.34L14.43 27.33L14.44 27.31L14.44 27.29L14.45 27.28L14.45 27.26L14.46 27.24L14.46 27.23L14.47 27.21L14.47 27.19L14.48 27.17L14.78 26.03L14.87 26L15.09 25.93L15.29 25.85L15.5 25.76L15.69 25.66L15.72 25.64L16.73 26.23L16.75 26.24L16.77 26.25L16.78 26.26L16.8 26.27L16.81 26.28L16.83 26.29L16.84 26.3L16.86 26.3L16.88 26.31L16.89 26.32L16.91 26.32L16.92 26.33L16.94 26.34L16.95 26.34L16.97 26.35L16.98 26.35L17 26.36L17.01 26.36L17.03 26.36L17.04 26.36L17.06 26.37L17.07 26.37L17.08 26.37L17.1 26.37L17.11 26.37L17.13 26.37L17.14 26.37L17.15 26.37L17.16 26.36L17.18 26.36L17.19 26.36L17.2 26.35L17.21 26.35L17.23 26.34L17.24 26.34L17.25 26.33L17.26 26.32L17.27 26.31L17.28 26.3L17.29 26.29L18.78 24.8L18.79 24.79L18.8 24.78L18.81 24.77L18.82 24.76L18.82 24.75L18.83 24.74L18.84 24.73L18.84 24.72L18.84 24.7L18.85 24.69L18.85 24.68L18.85 24.67L18.85 24.65L18.85 24.64L18.85 24.63L18.85 24.61L18.85 24.6L18.85 24.59L18.85 24.57L18.85 24.56L18.84 24.54L18.84 24.53L18.84 24.52L18.83 24.5L18.83 24.49L18.82 24.47L18.82 24.46L18.81 24.44L18.81 24.43L18.8 24.41L18.79 24.39L18.79 24.38L18.78 24.36L18.77 24.35L18.76 24.33L18.75 24.31L18.75 24.3L18.74 24.28L18.73 24.26L18.72 24.25L18.13 23.23L18.14 23.21L18.24 23.01L18.33 22.81L18.41 22.6L18.49 22.39L18.52 22.3L19.66 21.99L19.67 21.99L19.69 21.98L19.71 21.97L19.73 21.97L19.75 21.96L19.76 21.96L19.78 21.95L19.8 21.94L19.81 21.94L19.83 21.93L19.84 21.92L19.86 21.92L19.87 21.91L19.89 21.9L19.9 21.9L19.92 21.89L19.93 21.88L19.94 21.87L19.95 21.87L19.97 21.86L19.98 21.85L19.99 21.84L20 21.83L20.01 21.83L20.02 21.82L20.03 21.81L20.04 21.8L20.05 21.79L20.05 21.78L20.06 21.77L20.07 21.76L20.07 21.74L20.08 21.73L20.08 21.72L20.09 21.71L20.09 21.7L20.09 21.68L20.09 21.67L20.1 21.65L20.1 21.64L20.1 19.53L20.1 19.52L20.09 19.5L20.09 19.49L20.09 19.48L20.09 19.46L20.08 19.45L20.08 19.44L20.07 19.43L20.07 19.42L20.06 19.4L20.05 19.39L20.05 19.38L20.04 19.37L20.03 19.36L20.02 19.35L20.01 19.34L20 19.33L19.99 19.32L19.98 19.31L19.97 19.31L19.95 19.3L19.94 19.29L19.93 19.28L19.92 19.27L19.9 19.27L19.89 19.26L19.87 19.25L19.86 19.25L19.84 19.24L19.83 19.23L19.81 19.23L19.8 19.22L19.78 19.22L19.76 19.21L19.75 19.2L19.73 19.2L19.71 19.2L19.69 19.19L19.67 19.19L19.66 19.18L18.52 18.88L18.49 18.78L18.41 18.57L18.33 18.36L18.24 18.16L18.14 17.96L18.13 17.94L18.72 16.92L18.73 16.91L18.74 16.89L18.75 16.87L18.75 16.86L18.76 16.84L18.77 16.82L18.78 16.81L18.79 16.79L18.79 16.78L18.8 16.76L18.81 16.74L18.81 16.73L18.82 16.71L18.82 16.7L18.83 16.68L18.83 16.67L18.84 16.65L18.84 16.64L18.84 16.62L18.85 16.61L18.85 16.6L18.85 16.58L18.85 16.57L18.85 16.55L18.85 16.54L18.85 16.53L18.85 16.52L18.85 16.5L18.85 16.49L18.85 16.48L18.84 16.47L18.84 16.45L18.84 16.44L18.83 16.43L18.82 16.42L18.82 16.41L18.81 16.4L18.8 16.39L18.79 16.37L18.78 16.36L17.29 14.87L17.28 14.86L17.27 14.86L17.26 14.85L17.25 14.84L17.24 14.83L17.23 14.83L17.21 14.82L17.2 14.82L17.19 14.81L17.18 14.81L17.16 14.8L17.15 14.8L17.14 14.8L17.13 14.8L17.11 14.8L17.1 14.8L17.08 14.8L17.07 14.8L17.06 14.8L17.04 14.8L17.03 14.81L17.01 14.81L17 14.81L16.98 14.82L16.97 14.82L16.95 14.83L16.94 14.83L16.92 14.84L16.91 14.85L16.89 14.85L16.88 14.86L16.86 14.87L16.84 14.87L16.83 14.88L16.81 14.89L16.8 14.9L16.78 14.91L16.77 14.92L16.75 14.93L16.73 14.94L15.71 15.53L15.69 15.52L15.5 15.42L15.29 15.33L15.09 15.24L14.87 15.17L14.78 15.14L14.48 14L14.47 13.98L14.47 13.96L14.46 13.95L14.46 13.93L14.45 13.91L14.45 13.9L14.44 13.88L14.44 13.86L14.43 13.85L14.42 13.83L14.42 13.81L14.41 13.8L14.41 13.78L14.4 13.77L14.39 13.76L14.38 13.74L14.38 13.73L14.37 13.72L14.36 13.7L14.35 13.69L14.34 13.68L14.33 13.67L14.33 13.66L14.32 13.65L14.31 13.64L14.3 13.63L14.29 13.62L14.28 13.61L14.26 13.6L14.25 13.6L14.24 13.59L14.23 13.58L14.22 13.58L14.21 13.57L14.19 13.57L14.18 13.57L14.17 13.56L14.15 13.56L14.14 13.56L14.12 13.56L12.02 13.56L12 13.56L11.99 13.56ZM13.32 17.52L13.45 17.54L13.57 17.55L13.69 17.58L13.81 17.6L13.93 17.63L14.04 17.67L14.16 17.71L14.27 17.75L14.38 17.8L14.48 17.86L14.59 17.91L14.69 17.97L14.79 18.04L14.89 18.11L14.98 18.18L15.07 18.25L15.16 18.33L15.24 18.41L15.33 18.5L15.4 18.59L15.48 18.68L15.55 18.77L15.62 18.87L15.68 18.97L15.74 19.07L15.8 19.17L15.85 19.28L15.9 19.39L15.95 19.5L15.99 19.62L16.02 19.73L16.05 19.85L16.08 19.97L16.1 20.09L16.12 20.21L16.13 20.33L16.14 20.46L16.14 20.59L16.14 20.71L16.13 20.84L16.12 20.96L16.1 21.09L16.08 21.21L16.05 21.33L16.02 21.44L15.99 21.56L15.95 21.67L15.9 21.78L15.85 21.89L15.8 22L15.74 22.1L15.68 22.21L15.62 22.3L15.55 22.4L15.48 22.5L15.4 22.59L15.33 22.67L15.24 22.76L15.16 22.84L15.07 22.92L14.98 23L14.89 23.07L14.79 23.14L14.69 23.2L14.59 23.26L14.48 23.32L14.38 23.37L14.27 23.42L14.16 23.46L14.04 23.5L13.93 23.54L13.81 23.57L13.69 23.6L13.57 23.62L13.45 23.64L13.32 23.65L13.2 23.66L13.07 23.66L12.94 23.66L12.82 23.65L12.69 23.64L12.57 23.62L12.45 23.6L12.33 23.57L12.21 23.54L12.1 23.5L11.99 23.46L11.87 23.42L11.77 23.37L11.66 23.32L11.55 23.26L11.45 23.2L11.35 23.14L11.26 23.07L11.16 23L11.07 22.92L10.98 22.84L10.9 22.76L10.82 22.67L10.74 22.59L10.66 22.5L10.59 22.4L10.52 22.3L10.46 22.21L10.4 22.1L10.34 22L10.29 21.89L10.24 21.78L10.19 21.67L10.15 21.56L10.12 21.44L10.09 21.33L10.06 21.21L10.04 21.09L10.02 20.96L10.01 20.84L10 20.71L10 20.59L10 20.46L10.01 20.33L10.02 20.21L10.04 20.09L10.06 19.97L10.09 19.85L10.12 19.73L10.15 19.62L10.19 19.5L10.24 19.39L10.29 19.28L10.34 19.17L10.4 19.07L10.46 18.97L10.52 18.87L10.59 18.77L10.66 18.68L10.74 18.59L10.82 18.5L10.9 18.41L10.98 18.33L11.07 18.25L11.16 18.18L11.26 18.11L11.35 18.04L11.45 17.97L11.55 17.91L11.66 17.86L11.77 17.8L11.87 17.75L11.99 17.71L12.1 17.67L12.21 17.63L12.33 17.6L12.45 17.58L12.57 17.55L12.69 17.54L12.82 17.52L12.94 17.52L13.07 17.51L13.2 17.52L13.32 17.52Z" id="b20cofnzRp"></path><radialGradient id="gradientcYQ1KxfG7" gradientUnits="userSpaceOnUse" cx="13.07" cy="20.59" dx="14.06" dy="24.5" r="4.04"><stop style="stop-color: #fcba03;stop-opacity: 1" offset="0%"></stop><stop style="stop-color: #ffffff;stop-opacity: 1" offset="100%"></stop></radialGradient></defs><g><g><g><use xlink:href="#a6n93KrRhf" opacity="1" fill="url(#gradienta4Af83hen)"></use></g><g><use xlink:href="#b20cofnzRp" opacity="1" fill="url(#gradientcYQ1KxfG7)"></use></g></g></g></svg>