<?xml version="1.0" encoding="UTF-8" standalone="no"?>
<!DOCTYPE svg PUBLIC "-//W3C//DTD SVG 1.1//EN" "http://www.w3.org/Graphics/SVG/1.1/DTD/svg11.dtd">
<svg version="1.1" xmlns="http://www.w3.org/2000/svg" xmlns:xlink="http://www.w3.org/1999/xlink" preserveAspectRatio="xMidYMid meet" viewBox="0 0 32 32" width="32" height="32"><defs><path d="M19.32 4.23C23.5 4.23 26.89 8.44 26.89 13.63C26.89 13.83 26.88 14.02 26.87 14.22C29.89 15.01 32.12 17.65 32.12 20.79C32.12 20.79 32.12 20.79 32.12 20.79C32.12 24.56 28.93 27.61 24.99 27.61C23.21 27.61 8.91 27.61 7.12 27.61C3.19 27.61 0 24.56 0 20.79C0 20.79 0 20.79 0 20.79C0 17.51 2.42 14.77 5.65 14.12C5.94 10.56 8.36 7.78 11.3 7.78C11.95 7.78 12.57 7.92 13.15 8.17C14.52 5.78 16.77 4.23 19.32 4.23Z" id="a6n93KrRhf"></path><radialGradient id="gradienta4Af83hen" gradientUnits="userSpaceOnUse" cx="15.74" cy="16.62" dx="-2.91" dy="43.76" r="32.93"><stop style="stop-color: #fcba03;stop-opacity: 1" offset="0%"></stop><stop style="stop-color: #cc9602;stop-opacity: 1" offset="44.6359459346755%"></stop><stop style="stop-color: #906a00;stop-opacity: 1" offset="100%"></stop></radialGradient><path d="M15.04 13.96L15.03 13.96L15.02 13.96L15.01 13.97L14.99 13.97L14.98 13.98L14.97 13.98L14.96 13.98L14.95 13.99L14.94 14L14.94 14L14.93 14.01L14.92 14.02L14.91 14.03L14.9 14.03L14.89 14.04L14.89 14.05L14.88 14.06L14.87 14.07L14.86 14.08L14.86 14.1L14.85 14.11L14.84 14.12L14.84 14.13L14.83 14.14L14.83 14.16L14.82 14.17L14.81 14.18L14.81 14.2L14.8 14.21L14.8 14.23L14.79 14.24L14.79 14.26L14.78 14.27L14.78 14.29L14.77 14.3L14.76 14.32L14.76 14.33L14.75 14.35L14.48 15.36L14.4 15.39L14.21 15.45L14.03 15.53L13.85 15.61L13.67 15.69L13.66 15.7L12.75 15.17L12.74 15.17L12.72 15.16L12.71 15.15L12.69 15.15L12.68 15.14L12.66 15.13L12.65 15.12L12.63 15.12L12.62 15.11L12.61 15.11L12.59 15.1L12.58 15.09L12.57 15.09L12.55 15.08L12.54 15.08L12.53 15.08L12.51 15.07L12.5 15.07L12.49 15.07L12.47 15.06L12.46 15.06L12.45 15.06L12.44 15.06L12.43 15.06L12.41 15.06L12.4 15.06L12.39 15.06L12.38 15.06L12.37 15.06L12.36 15.06L12.35 15.07L12.34 15.07L12.32 15.07L12.31 15.08L12.3 15.08L12.29 15.09L12.28 15.1L12.27 15.1L12.27 15.11L12.26 15.12L10.93 16.44L10.93 16.45L10.92 16.46L10.91 16.47L10.9 16.48L10.9 16.49L10.89 16.5L10.89 16.51L10.88 16.52L10.88 16.53L10.88 16.54L10.87 16.55L10.87 16.57L10.87 16.58L10.87 16.59L10.87 16.6L10.87 16.61L10.87 16.63L10.87 16.64L10.87 16.65L10.87 16.66L10.88 16.68L10.88 16.69L10.88 16.7L10.89 16.72L10.89 16.73L10.89 16.74L10.9 16.76L10.9 16.77L10.91 16.78L10.92 16.8L10.92 16.81L10.93 16.82L10.93 16.84L10.94 16.85L10.95 16.87L10.96 16.88L10.96 16.89L10.97 16.91L10.98 16.92L10.99 16.94L11.51 17.84L11.5 17.86L11.42 18.04L11.34 18.22L11.26 18.4L11.2 18.59L11.17 18.67L10.16 18.94L10.14 18.95L10.13 18.95L10.11 18.95L10.1 18.96L10.08 18.96L10.07 18.97L10.05 18.97L10.04 18.98L10.02 18.98L10.01 18.99L10 18.99L9.98 19L9.97 19.01L9.96 19.01L9.94 19.02L9.93 19.02L9.92 19.03L9.91 19.04L9.9 19.05L9.89 19.05L9.87 19.06L9.86 19.07L9.86 19.08L9.85 19.08L9.84 19.09L9.83 19.1L9.82 19.11L9.81 19.12L9.81 19.13L9.8 19.14L9.8 19.15L9.79 19.16L9.79 19.17L9.78 19.18L9.78 19.19L9.78 19.21L9.77 19.22L9.77 19.23L9.77 19.24L9.77 19.25L9.77 21.12L9.77 21.14L9.77 21.15L9.77 21.16L9.78 21.17L9.78 21.18L9.78 21.19L9.79 21.2L9.79 21.21L9.8 21.22L9.8 21.23L9.81 21.24L9.81 21.25L9.82 21.26L9.83 21.27L9.84 21.28L9.85 21.29L9.86 21.29L9.86 21.3L9.87 21.31L9.89 21.32L9.9 21.32L9.91 21.33L9.92 21.34L9.93 21.34L9.94 21.35L9.96 21.36L9.97 21.36L9.98 21.37L10 21.37L10.01 21.38L10.02 21.39L10.04 21.39L10.05 21.4L10.07 21.4L10.08 21.41L10.1 21.41L10.11 21.42L10.13 21.42L10.14 21.43L10.16 21.43L11.17 21.7L11.2 21.79L11.26 21.98L11.34 22.16L11.42 22.34L11.5 22.51L11.51 22.53L10.99 23.44L10.98 23.45L10.97 23.46L10.96 23.48L10.96 23.49L10.95 23.51L10.94 23.52L10.93 23.53L10.93 23.55L10.92 23.56L10.92 23.58L10.91 23.59L10.9 23.6L10.9 23.62L10.89 23.63L10.89 23.64L10.89 23.66L10.88 23.67L10.88 23.68L10.88 23.7L10.87 23.71L10.87 23.72L10.87 23.73L10.87 23.75L10.87 23.76L10.87 23.77L10.87 23.78L10.87 23.8L10.87 23.81L10.87 23.82L10.88 23.83L10.88 23.84L10.88 23.85L10.89 23.86L10.89 23.87L10.9 23.88L10.9 23.89L10.91 23.9L10.92 23.91L10.93 23.92L10.93 23.93L12.26 25.25L12.27 25.26L12.27 25.27L12.28 25.28L12.29 25.28L12.3 25.29L12.31 25.3L12.32 25.3L12.34 25.3L12.35 25.31L12.36 25.31L12.37 25.31L12.38 25.31L12.39 25.32L12.4 25.32L12.41 25.32L12.43 25.32L12.44 25.32L12.45 25.31L12.46 25.31L12.47 25.31L12.49 25.31L12.5 25.3L12.51 25.3L12.53 25.3L12.54 25.29L12.55 25.29L12.57 25.28L12.58 25.28L12.59 25.27L12.61 25.27L12.62 25.26L12.63 25.26L12.65 25.25L12.66 25.24L12.68 25.24L12.69 25.23L12.71 25.22L12.72 25.21L12.74 25.21L12.75 25.2L13.66 24.67L13.67 24.68L13.85 24.77L14.03 24.85L14.21 24.93L14.4 24.99L14.48 25.02L14.75 26.03L14.76 26.04L14.76 26.06L14.77 26.08L14.78 26.09L14.78 26.11L14.79 26.12L14.79 26.14L14.8 26.15L14.8 26.17L14.81 26.18L14.81 26.19L14.82 26.21L14.83 26.22L14.83 26.23L14.84 26.25L14.84 26.26L14.85 26.27L14.86 26.28L14.86 26.29L14.87 26.3L14.88 26.31L14.89 26.32L14.89 26.33L14.9 26.34L14.91 26.35L14.92 26.36L14.93 26.37L14.94 26.37L14.94 26.38L14.95 26.39L14.96 26.39L14.97 26.4L14.98 26.4L14.99 26.41L15.01 26.41L15.02 26.41L15.03 26.41L15.04 26.42L15.05 26.42L15.07 26.42L16.93 26.42L16.95 26.42L16.96 26.42L16.97 26.41L16.98 26.41L17 26.41L17.01 26.41L17.02 26.4L17.03 26.4L17.04 26.39L17.05 26.39L17.06 26.38L17.07 26.37L17.08 26.37L17.09 26.36L17.1 26.35L17.1 26.34L17.11 26.33L17.12 26.32L17.13 26.31L17.14 26.3L17.14 26.29L17.15 26.28L17.16 26.27L17.16 26.26L17.17 26.25L17.18 26.23L17.18 26.22L17.19 26.21L17.19 26.19L17.2 26.18L17.21 26.17L17.21 26.15L17.22 26.14L17.22 26.12L17.23 26.11L17.23 26.09L17.23 26.08L17.24 26.06L17.24 26.04L17.25 26.03L17.52 25.02L17.6 24.99L17.79 24.93L17.97 24.85L18.15 24.77L18.33 24.68L18.35 24.67L19.25 25.19L19.26 25.2L19.28 25.21L19.29 25.22L19.3 25.23L19.32 25.24L19.33 25.24L19.35 25.25L19.36 25.26L19.37 25.26L19.39 25.27L19.4 25.28L19.41 25.28L19.43 25.29L19.44 25.29L19.46 25.3L19.47 25.3L19.48 25.3L19.49 25.31L19.51 25.31L19.52 25.31L19.53 25.31L19.55 25.32L19.56 25.32L19.57 25.32L19.58 25.32L19.59 25.32L19.61 25.32L19.62 25.31L19.63 25.31L19.64 25.31L19.65 25.31L19.66 25.3L19.67 25.3L19.68 25.29L19.7 25.29L19.71 25.28L19.72 25.27L19.73 25.27L19.73 25.26L19.74 25.25L21.07 23.93L21.07 23.92L21.08 23.91L21.09 23.9L21.1 23.89L21.1 23.88L21.11 23.87L21.11 23.86L21.12 23.85L21.12 23.84L21.12 23.83L21.12 23.82L21.13 23.81L21.13 23.79L21.13 23.78L21.13 23.77L21.13 23.76L21.13 23.75L21.13 23.74L21.12 23.72L21.12 23.71L21.12 23.7L21.12 23.69L21.11 23.67L21.11 23.66L21.1 23.65L21.1 23.63L21.1 23.62L21.09 23.61L21.08 23.59L21.08 23.58L21.07 23.56L21.07 23.55L21.06 23.54L21.05 23.52L21.05 23.51L21.04 23.49L21.03 23.48L21.03 23.46L21.02 23.45L21.01 23.43L20.49 22.53L20.5 22.51L20.58 22.34L20.66 22.16L20.74 21.98L20.8 21.79L20.83 21.7L21.84 21.43L21.86 21.43L21.87 21.42L21.89 21.42L21.9 21.41L21.92 21.41L21.93 21.4L21.95 21.4L21.96 21.39L21.98 21.39L21.99 21.38L22 21.37L22.02 21.37L22.03 21.36L22.04 21.36L22.06 21.35L22.07 21.34L22.08 21.34L22.09 21.33L22.1 21.32L22.11 21.32L22.13 21.31L22.14 21.3L22.14 21.29L22.15 21.29L22.16 21.28L22.17 21.27L22.18 21.26L22.19 21.25L22.19 21.24L22.2 21.23L22.2 21.22L22.21 21.21L22.21 21.2L22.22 21.19L22.22 21.18L22.22 21.17L22.23 21.16L22.23 21.15L22.23 21.14L22.23 21.12L22.23 19.25L22.23 19.24L22.23 19.23L22.23 19.22L22.22 19.21L22.22 19.19L22.22 19.18L22.21 19.17L22.21 19.16L22.2 19.15L22.2 19.14L22.19 19.13L22.19 19.12L22.18 19.11L22.17 19.1L22.16 19.09L22.15 19.08L22.14 19.08L22.14 19.07L22.13 19.06L22.11 19.05L22.1 19.05L22.09 19.04L22.08 19.03L22.07 19.02L22.06 19.02L22.04 19.01L22.03 19.01L22.02 19L22 18.99L21.99 18.99L21.98 18.98L21.96 18.98L21.95 18.97L21.93 18.97L21.92 18.96L21.9 18.96L21.89 18.95L21.87 18.95L21.86 18.95L21.84 18.94L20.83 18.67L20.8 18.59L20.74 18.4L20.66 18.22L20.58 18.04L20.5 17.86L20.49 17.84L21.01 16.94L21.02 16.93L21.03 16.91L21.03 16.9L21.04 16.88L21.05 16.87L21.05 16.85L21.06 16.84L21.07 16.82L21.07 16.81L21.08 16.8L21.08 16.78L21.09 16.77L21.1 16.75L21.1 16.74L21.1 16.73L21.11 16.71L21.11 16.7L21.12 16.69L21.12 16.68L21.12 16.66L21.12 16.65L21.13 16.64L21.13 16.63L21.13 16.61L21.13 16.6L21.13 16.59L21.13 16.58L21.13 16.57L21.12 16.56L21.12 16.55L21.12 16.53L21.12 16.52L21.11 16.51L21.11 16.5L21.1 16.49L21.1 16.48L21.09 16.47L21.08 16.46L21.07 16.45L21.07 16.44L19.74 15.12L19.73 15.11L19.73 15.11L19.72 15.1L19.71 15.09L19.7 15.09L19.68 15.08L19.67 15.08L19.66 15.07L19.65 15.07L19.64 15.06L19.63 15.06L19.62 15.06L19.61 15.06L19.59 15.06L19.58 15.06L19.57 15.06L19.56 15.06L19.55 15.06L19.53 15.06L19.52 15.06L19.51 15.06L19.49 15.07L19.48 15.07L19.47 15.07L19.46 15.08L19.44 15.08L19.43 15.09L19.41 15.09L19.4 15.1L19.39 15.1L19.37 15.11L19.36 15.12L19.35 15.12L19.33 15.13L19.32 15.14L19.3 15.15L19.29 15.15L19.28 15.16L19.26 15.17L19.25 15.18L18.34 15.7L18.33 15.69L18.15 15.61L17.97 15.53L17.79 15.45L17.6 15.39L17.52 15.36L17.25 14.35L17.24 14.33L17.24 14.32L17.23 14.3L17.23 14.29L17.23 14.27L17.22 14.26L17.22 14.24L17.21 14.23L17.21 14.21L17.2 14.2L17.19 14.18L17.19 14.17L17.18 14.16L17.18 14.14L17.17 14.13L17.16 14.12L17.16 14.11L17.15 14.1L17.14 14.08L17.14 14.07L17.13 14.06L17.12 14.05L17.11 14.04L17.1 14.03L17.1 14.03L17.09 14.02L17.08 14.01L17.07 14L17.06 14L17.05 13.99L17.04 13.98L17.03 13.98L17.02 13.98L17.01 13.97L17 13.97L16.98 13.96L16.97 13.96L16.96 13.96L16.95 13.96L16.93 13.96L15.07 13.96L15.05 13.96L15.04 13.96ZM16.22 17.47L16.33 17.48L16.44 17.5L16.55 17.52L16.65 17.54L16.76 17.57L16.86 17.6L16.96 17.64L17.06 17.68L17.16 17.72L17.25 17.77L17.35 17.82L17.44 17.87L17.52 17.93L17.61 17.99L17.69 18.05L17.77 18.12L17.85 18.19L17.93 18.26L18 18.34L18.07 18.42L18.14 18.5L18.2 18.58L18.26 18.66L18.32 18.75L18.37 18.84L18.42 18.94L18.47 19.03L18.51 19.13L18.55 19.23L18.59 19.33L18.62 19.43L18.65 19.53L18.67 19.64L18.69 19.75L18.7 19.86L18.72 19.97L18.72 20.08L18.73 20.19L18.72 20.3L18.72 20.41L18.7 20.52L18.69 20.63L18.67 20.74L18.65 20.84L18.62 20.95L18.59 21.05L18.55 21.15L18.51 21.25L18.47 21.35L18.42 21.44L18.37 21.53L18.32 21.62L18.26 21.71L18.2 21.8L18.14 21.88L18.07 21.96L18 22.04L17.93 22.12L17.85 22.19L17.77 22.26L17.69 22.32L17.61 22.39L17.52 22.45L17.44 22.51L17.35 22.56L17.25 22.61L17.16 22.66L17.06 22.7L16.96 22.74L16.86 22.77L16.76 22.81L16.65 22.83L16.55 22.86L16.44 22.88L16.33 22.89L16.22 22.9L16.11 22.91L16 22.91L15.89 22.91L15.78 22.9L15.67 22.89L15.56 22.88L15.45 22.86L15.35 22.83L15.24 22.81L15.14 22.77L15.04 22.74L14.94 22.7L14.84 22.66L14.75 22.61L14.65 22.56L14.56 22.51L14.48 22.45L14.39 22.39L14.31 22.32L14.23 22.26L14.15 22.19L14.07 22.12L14 22.04L13.93 21.96L13.86 21.88L13.8 21.8L13.74 21.71L13.68 21.62L13.63 21.53L13.58 21.44L13.53 21.35L13.49 21.25L13.45 21.15L13.41 21.05L13.38 20.95L13.35 20.84L13.33 20.74L13.31 20.63L13.3 20.52L13.28 20.41L13.28 20.3L13.27 20.19L13.28 20.08L13.28 19.97L13.3 19.86L13.31 19.75L13.33 19.64L13.35 19.53L13.38 19.43L13.41 19.33L13.45 19.23L13.49 19.13L13.53 19.03L13.58 18.94L13.63 18.84L13.68 18.75L13.74 18.66L13.8 18.58L13.86 18.5L13.93 18.42L14 18.34L14.07 18.26L14.15 18.19L14.23 18.12L14.31 18.05L14.39 17.99L14.48 17.93L14.56 17.87L14.65 17.82L14.75 17.77L14.84 17.72L14.94 17.68L15.04 17.64L15.14 17.6L15.24 17.57L15.35 17.54L15.45 17.52L15.56 17.5L15.67 17.48L15.78 17.47L15.89 17.47L16 17.46L16.11 17.47L16.22 17.47Z" id="aQi42hO45"></path><radialGradient id="gradientc1TC3kcsN2" gradientUnits="userSpaceOnUse" cx="16" cy="20.19" dx="16.88" dy="23.66" r="3.58"><stop style="stop-color: #fcba03;stop-opacity: 1" offset="0%"></stop><stop style="stop-color: #ffffff;stop-opacity: 1" offset="100%"></stop></radialGradient></defs><g><g><g><use xlink:href="#a6n93KrRhf" opacity="1" fill="url(#gradienta4Af83hen)"></use></g><g><use xlink:href="#aQi42hO45" opacity="1" fill="url(#gradientc1TC3kcsN2)"></use></g></g></g></svg>