<?xml version="1.0" encoding="UTF-8" standalone="no"?>
<!DOCTYPE svg PUBLIC "-//W3C//DTD SVG 1.1//EN" "http://www.w3.org/Graphics/SVG/1.1/DTD/svg11.dtd">
<svg version="1.1" xmlns="http://www.w3.org/2000/svg" xmlns:xlink="http://www.w3.org/1999/xlink" preserveAspectRatio="xMidYMid meet" viewBox="0 0 32 32" width="32" height="32"><defs><path d="M18.87 5.7C22.55 5.7 25.54 9.41 25.54 13.99C25.54 14.16 25.54 14.33 25.53 14.5C28.19 15.19 30.14 17.52 30.14 20.29C30.14 20.29 30.14 20.29 30.14 20.29C30.14 23.61 27.33 26.3 23.87 26.3C22.3 26.3 9.7 26.3 8.13 26.3C4.67 26.3 1.86 23.61 1.86 20.29C1.86 20.29 1.86 20.29 1.86 20.29C1.86 17.4 3.99 14.99 6.83 14.42C7.09 11.28 9.22 8.83 11.81 8.83C12.38 8.83 12.93 8.95 13.44 9.17C14.65 7.07 16.63 5.7 18.87 5.7Z" id="b1alA9aTUY"></path><radialGradient id="gradientf7zRLQBCWX" gradientUnits="userSpaceOnUse" cx="15.72" cy="16.62" dx="-0.71" dy="40.52" r="29"><stop style="stop-color: #fcba03;stop-opacity: 1" offset="0%"></stop><stop style="stop-color: #cc9602;stop-opacity: 1" offset="44.6359459346755%"></stop><stop style="stop-color: #906a00;stop-opacity: 1" offset="100%"></stop></radialGradient><path d="M12.11 13.4L12.1 13.4L12.09 13.4L12.08 13.4L12.06 13.41L12.05 13.41L12.04 13.42L12.03 13.42L12.02 13.43L12.01 13.43L12 13.44L11.99 13.45L11.98 13.45L11.98 13.46L11.97 13.47L11.96 13.48L11.95 13.49L11.94 13.5L11.94 13.51L11.93 13.52L11.92 13.54L11.91 13.55L11.91 13.56L11.9 13.57L11.9 13.59L11.89 13.6L11.88 13.61L11.88 13.63L11.87 13.64L11.86 13.66L11.86 13.67L11.85 13.69L11.85 13.7L11.84 13.72L11.84 13.73L11.83 13.75L11.83 13.76L11.82 13.78L11.81 13.8L11.54 14.84L11.45 14.87L11.25 14.94L11.06 15.02L10.88 15.1L10.7 15.19L10.68 15.2L9.74 14.65L9.72 14.65L9.71 14.64L9.69 14.63L9.68 14.62L9.66 14.61L9.65 14.61L9.63 14.6L9.62 14.59L9.6 14.59L9.59 14.58L9.58 14.58L9.56 14.57L9.55 14.56L9.53 14.56L9.52 14.56L9.51 14.55L9.49 14.55L9.48 14.54L9.47 14.54L9.45 14.54L9.44 14.54L9.43 14.53L9.41 14.53L9.4 14.53L9.39 14.53L9.38 14.53L9.37 14.53L9.35 14.53L9.34 14.53L9.33 14.54L9.32 14.54L9.31 14.54L9.3 14.55L9.29 14.55L9.28 14.56L9.27 14.56L9.26 14.57L9.25 14.58L9.24 14.59L9.23 14.6L7.86 15.96L7.85 15.97L7.84 15.98L7.83 15.99L7.83 16L7.82 16.01L7.81 16.03L7.81 16.04L7.8 16.05L7.8 16.06L7.8 16.07L7.79 16.08L7.79 16.09L7.79 16.11L7.79 16.12L7.79 16.13L7.79 16.14L7.79 16.16L7.79 16.17L7.79 16.18L7.79 16.2L7.8 16.21L7.8 16.22L7.8 16.24L7.81 16.25L7.81 16.26L7.82 16.28L7.82 16.29L7.83 16.31L7.83 16.32L7.84 16.33L7.84 16.35L7.85 16.36L7.86 16.38L7.87 16.39L7.87 16.41L7.88 16.42L7.89 16.43L7.9 16.45L7.91 16.46L7.92 16.48L8.46 17.42L8.45 17.44L8.36 17.62L8.27 17.81L8.2 18L8.13 18.19L8.1 18.28L7.06 18.56L7.04 18.56L7.02 18.56L7.01 18.57L6.99 18.57L6.98 18.58L6.96 18.58L6.94 18.59L6.93 18.59L6.91 18.6L6.9 18.6L6.89 18.61L6.87 18.61L6.86 18.62L6.84 18.63L6.83 18.63L6.82 18.64L6.81 18.65L6.79 18.65L6.78 18.66L6.77 18.67L6.76 18.68L6.75 18.69L6.74 18.69L6.73 18.7L6.72 18.71L6.71 18.72L6.71 18.73L6.7 18.74L6.69 18.75L6.69 18.76L6.68 18.77L6.67 18.78L6.67 18.79L6.67 18.8L6.66 18.82L6.66 18.83L6.66 18.84L6.65 18.85L6.65 18.87L6.65 18.88L6.65 20.81L6.65 20.83L6.65 20.84L6.66 20.85L6.66 20.86L6.66 20.88L6.67 20.89L6.67 20.9L6.67 20.91L6.68 20.92L6.69 20.93L6.69 20.94L6.7 20.95L6.71 20.96L6.71 20.97L6.72 20.98L6.73 20.98L6.74 20.99L6.75 21L6.76 21.01L6.77 21.01L6.78 21.02L6.79 21.03L6.81 21.04L6.82 21.04L6.83 21.05L6.84 21.06L6.86 21.06L6.87 21.07L6.89 21.07L6.9 21.08L6.91 21.09L6.93 21.09L6.94 21.1L6.96 21.1L6.98 21.11L6.99 21.11L7.01 21.12L7.02 21.13L7.04 21.13L7.06 21.14L8.1 21.42L8.13 21.5L8.2 21.7L8.27 21.89L8.36 22.07L8.45 22.26L8.46 22.27L7.92 23.21L7.91 23.23L7.9 23.24L7.89 23.25L7.88 23.27L7.87 23.28L7.87 23.3L7.86 23.31L7.85 23.33L7.84 23.34L7.84 23.35L7.83 23.37L7.83 23.38L7.82 23.4L7.82 23.41L7.81 23.43L7.81 23.44L7.8 23.45L7.8 23.47L7.8 23.48L7.79 23.49L7.79 23.51L7.79 23.52L7.79 23.53L7.79 23.54L7.79 23.56L7.79 23.57L7.79 23.58L7.79 23.59L7.79 23.61L7.8 23.62L7.8 23.63L7.8 23.64L7.81 23.65L7.81 23.66L7.82 23.67L7.83 23.68L7.83 23.69L7.84 23.7L7.85 23.71L7.86 23.72L9.23 25.09L9.24 25.1L9.25 25.11L9.26 25.12L9.27 25.12L9.28 25.13L9.29 25.14L9.3 25.14L9.31 25.15L9.32 25.15L9.33 25.15L9.34 25.15L9.35 25.16L9.37 25.16L9.38 25.16L9.39 25.16L9.4 25.16L9.41 25.16L9.43 25.16L9.44 25.15L9.45 25.15L9.47 25.15L9.48 25.15L9.49 25.14L9.51 25.14L9.52 25.13L9.53 25.13L9.55 25.12L9.56 25.12L9.58 25.11L9.59 25.11L9.6 25.1L9.62 25.09L9.63 25.09L9.65 25.08L9.66 25.07L9.68 25.07L9.69 25.06L9.71 25.05L9.72 25.04L9.74 25.04L10.68 24.49L10.7 24.5L10.88 24.59L11.06 24.68L11.25 24.75L11.45 24.82L11.54 24.85L11.81 25.89L11.82 25.91L11.83 25.93L11.83 25.94L11.84 25.96L11.84 25.98L11.85 25.99L11.85 26.01L11.86 26.02L11.86 26.04L11.87 26.05L11.88 26.07L11.88 26.08L11.89 26.09L11.9 26.11L11.9 26.12L11.91 26.13L11.91 26.15L11.92 26.16L11.93 26.17L11.94 26.18L11.94 26.19L11.95 26.2L11.96 26.21L11.97 26.22L11.98 26.23L11.98 26.24L11.99 26.25L12 26.25L12.01 26.26L12.02 26.27L12.03 26.27L12.04 26.28L12.05 26.28L12.06 26.29L12.08 26.29L12.09 26.29L12.1 26.29L12.11 26.3L12.12 26.3L12.14 26.3L14.07 26.3L14.09 26.3L14.1 26.3L14.11 26.29L14.12 26.29L14.14 26.29L14.15 26.29L14.16 26.28L14.17 26.28L14.18 26.27L14.19 26.27L14.2 26.26L14.21 26.25L14.22 26.25L14.23 26.24L14.24 26.23L14.25 26.22L14.26 26.21L14.27 26.2L14.27 26.19L14.28 26.18L14.29 26.17L14.3 26.16L14.3 26.15L14.31 26.13L14.32 26.12L14.32 26.11L14.33 26.09L14.34 26.08L14.34 26.07L14.35 26.05L14.35 26.04L14.36 26.02L14.36 26.01L14.37 25.99L14.37 25.98L14.38 25.96L14.38 25.94L14.39 25.93L14.39 25.91L14.4 25.89L14.67 24.85L14.76 24.82L14.96 24.75L15.15 24.68L15.33 24.59L15.51 24.5L15.54 24.49L16.47 25.03L16.48 25.04L16.5 25.05L16.51 25.06L16.53 25.07L16.54 25.07L16.56 25.08L16.57 25.09L16.59 25.1L16.6 25.1L16.61 25.11L16.63 25.12L16.64 25.12L16.66 25.13L16.67 25.13L16.68 25.14L16.7 25.14L16.71 25.14L16.72 25.15L16.74 25.15L16.75 25.15L16.76 25.15L16.78 25.16L16.79 25.16L16.8 25.16L16.82 25.16L16.83 25.16L16.84 25.16L16.85 25.15L16.86 25.15L16.88 25.15L16.89 25.15L16.9 25.14L16.91 25.14L16.92 25.13L16.93 25.13L16.94 25.12L16.95 25.11L16.96 25.11L16.97 25.1L16.98 25.09L18.35 23.72L18.36 23.71L18.37 23.7L18.38 23.69L18.38 23.68L18.39 23.67L18.39 23.66L18.4 23.65L18.4 23.64L18.41 23.63L18.41 23.62L18.41 23.6L18.41 23.59L18.42 23.58L18.42 23.57L18.42 23.56L18.42 23.55L18.42 23.53L18.41 23.52L18.41 23.51L18.41 23.49L18.41 23.48L18.4 23.47L18.4 23.45L18.4 23.44L18.39 23.43L18.39 23.41L18.38 23.4L18.38 23.39L18.37 23.37L18.37 23.36L18.36 23.34L18.35 23.33L18.35 23.31L18.34 23.3L18.33 23.28L18.33 23.27L18.32 23.25L18.31 23.24L18.3 23.22L18.29 23.21L17.75 22.27L17.76 22.26L17.85 22.07L17.94 21.89L18.01 21.7L18.08 21.5L18.11 21.42L19.15 21.14L19.17 21.13L19.19 21.13L19.2 21.12L19.22 21.11L19.23 21.11L19.25 21.1L19.27 21.1L19.28 21.09L19.3 21.09L19.31 21.08L19.32 21.07L19.34 21.07L19.35 21.06L19.37 21.06L19.38 21.05L19.39 21.04L19.4 21.04L19.42 21.03L19.43 21.02L19.44 21.01L19.45 21.01L19.46 21L19.47 20.99L19.48 20.98L19.49 20.98L19.5 20.97L19.5 20.96L19.51 20.95L19.52 20.94L19.52 20.93L19.53 20.92L19.54 20.91L19.54 20.9L19.54 20.89L19.55 20.88L19.55 20.86L19.55 20.85L19.56 20.84L19.56 20.83L19.56 20.81L19.56 18.88L19.56 18.87L19.56 18.85L19.55 18.84L19.55 18.83L19.55 18.82L19.54 18.8L19.54 18.79L19.54 18.78L19.53 18.77L19.52 18.76L19.52 18.75L19.51 18.74L19.5 18.73L19.5 18.72L19.49 18.71L19.48 18.7L19.47 18.69L19.46 18.69L19.45 18.68L19.44 18.67L19.43 18.66L19.42 18.65L19.4 18.65L19.39 18.64L19.38 18.63L19.37 18.63L19.35 18.62L19.34 18.61L19.32 18.61L19.31 18.6L19.3 18.6L19.28 18.59L19.27 18.59L19.25 18.58L19.23 18.58L19.22 18.57L19.2 18.57L19.19 18.56L19.17 18.56L19.15 18.56L18.11 18.28L18.08 18.19L18.01 18L17.94 17.81L17.85 17.62L17.76 17.44L17.75 17.42L18.29 16.48L18.3 16.47L18.31 16.45L18.32 16.44L18.33 16.42L18.33 16.4L18.34 16.39L18.35 16.38L18.35 16.36L18.36 16.35L18.37 16.33L18.37 16.32L18.38 16.3L18.38 16.29L18.39 16.27L18.39 16.26L18.4 16.25L18.4 16.23L18.4 16.22L18.41 16.21L18.41 16.19L18.41 16.18L18.41 16.17L18.42 16.16L18.42 16.14L18.42 16.13L18.42 16.12L18.42 16.11L18.41 16.1L18.41 16.08L18.41 16.07L18.41 16.06L18.4 16.05L18.4 16.04L18.39 16.03L18.39 16.02L18.38 16.01L18.38 16L18.37 15.99L18.36 15.98L18.35 15.97L16.98 14.6L16.97 14.59L16.96 14.58L16.95 14.57L16.94 14.57L16.93 14.56L16.92 14.56L16.91 14.55L16.9 14.55L16.89 14.54L16.88 14.54L16.86 14.54L16.85 14.53L16.84 14.53L16.83 14.53L16.82 14.53L16.8 14.53L16.79 14.53L16.78 14.53L16.76 14.53L16.75 14.54L16.74 14.54L16.72 14.54L16.71 14.54L16.7 14.55L16.68 14.55L16.67 14.56L16.66 14.56L16.64 14.57L16.63 14.57L16.61 14.58L16.6 14.59L16.59 14.59L16.57 14.6L16.56 14.61L16.54 14.61L16.53 14.62L16.51 14.63L16.5 14.64L16.48 14.65L16.47 14.66L15.53 15.2L15.51 15.19L15.33 15.1L15.15 15.02L14.96 14.94L14.76 14.87L14.67 14.84L14.4 13.8L14.39 13.78L14.39 13.76L14.38 13.75L14.38 13.73L14.37 13.72L14.37 13.7L14.36 13.69L14.36 13.67L14.35 13.66L14.35 13.64L14.34 13.63L14.34 13.61L14.33 13.6L14.32 13.59L14.32 13.57L14.31 13.56L14.3 13.55L14.3 13.54L14.29 13.52L14.28 13.51L14.27 13.5L14.27 13.49L14.26 13.48L14.25 13.47L14.24 13.46L14.23 13.45L14.22 13.45L14.21 13.44L14.2 13.43L14.19 13.43L14.18 13.42L14.17 13.42L14.16 13.41L14.15 13.41L14.14 13.4L14.12 13.4L14.11 13.4L14.1 13.4L14.09 13.39L14.07 13.39L12.14 13.39L12.12 13.39L12.11 13.4ZM13.34 17.03L13.45 17.04L13.56 17.06L13.67 17.08L13.78 17.11L13.89 17.13L14 17.17L14.1 17.2L14.2 17.25L14.3 17.29L14.4 17.34L14.5 17.39L14.59 17.45L14.68 17.51L14.77 17.57L14.86 17.63L14.94 17.7L15.02 17.78L15.1 17.85L15.18 17.93L15.25 18.01L15.32 18.09L15.38 18.18L15.45 18.27L15.5 18.36L15.56 18.45L15.61 18.55L15.66 18.65L15.71 18.75L15.75 18.85L15.78 18.95L15.82 19.06L15.85 19.17L15.87 19.28L15.89 19.39L15.91 19.5L15.92 19.61L15.93 19.73L15.93 19.85L15.93 19.96L15.92 20.08L15.91 20.19L15.89 20.3L15.87 20.42L15.85 20.52L15.82 20.63L15.78 20.74L15.75 20.84L15.71 20.94L15.66 21.05L15.61 21.14L15.56 21.24L15.5 21.33L15.45 21.42L15.38 21.51L15.32 21.6L15.25 21.68L15.18 21.76L15.1 21.84L15.02 21.92L14.94 21.99L14.86 22.06L14.77 22.12L14.68 22.19L14.59 22.25L14.5 22.3L14.4 22.35L14.3 22.4L14.2 22.45L14.1 22.49L14 22.52L13.89 22.56L13.78 22.59L13.67 22.61L13.56 22.63L13.45 22.65L13.34 22.66L13.22 22.67L13.11 22.67L12.99 22.67L12.87 22.66L12.76 22.65L12.65 22.63L12.54 22.61L12.43 22.59L12.32 22.56L12.21 22.52L12.11 22.49L12.01 22.45L11.91 22.4L11.81 22.35L11.71 22.3L11.62 22.25L11.53 22.19L11.44 22.12L11.35 22.06L11.27 21.99L11.19 21.92L11.11 21.84L11.03 21.76L10.96 21.68L10.89 21.6L10.83 21.51L10.76 21.42L10.71 21.33L10.65 21.24L10.6 21.14L10.55 21.05L10.5 20.94L10.46 20.84L10.43 20.74L10.39 20.63L10.36 20.52L10.34 20.42L10.32 20.3L10.3 20.19L10.29 20.08L10.28 19.96L10.28 19.85L10.28 19.73L10.29 19.61L10.3 19.5L10.32 19.39L10.34 19.28L10.36 19.17L10.39 19.06L10.43 18.95L10.46 18.85L10.5 18.75L10.55 18.65L10.6 18.55L10.65 18.45L10.71 18.36L10.76 18.27L10.83 18.18L10.89 18.09L10.96 18.01L11.03 17.93L11.11 17.85L11.19 17.78L11.27 17.7L11.35 17.63L11.44 17.57L11.53 17.51L11.62 17.45L11.71 17.39L11.81 17.34L11.91 17.29L12.01 17.25L12.11 17.2L12.21 17.17L12.32 17.13L12.43 17.11L12.54 17.08L12.65 17.06L12.76 17.04L12.87 17.03L12.99 17.03L13.11 17.02L13.22 17.03L13.34 17.03Z" id="a1jPk15krn"></path><radialGradient id="gradientaob3XsuiV" gradientUnits="userSpaceOnUse" cx="13.11" cy="19.85" dx="14.01" dy="23.44" r="3.71"><stop style="stop-color: #fcba03;stop-opacity: 1" offset="0%"></stop><stop style="stop-color: #ffffff;stop-opacity: 1" offset="100%"></stop></radialGradient></defs><g><g><g><use xlink:href="#b1alA9aTUY" opacity="1" fill="url(#gradientf7zRLQBCWX)"></use></g><g><use xlink:href="#a1jPk15krn" opacity="1" fill="url(#gradientaob3XsuiV)"></use></g></g></g></svg>