<?xml version="1.0" encoding="UTF-8" standalone="no"?>
<!DOCTYPE svg PUBLIC "-//W3C//DTD SVG 1.1//EN" "http://www.w3.org/Graphics/SVG/1.1/DTD/svg11.dtd">
<svg version="1.1" xmlns="http://www.w3.org/2000/svg" xmlns:xlink="http://www.w3.org/1999/xlink" preserveAspectRatio="xMidYMid meet" viewBox="0 0 32 32" width="32" height="32"><defs><path d="M19.32 4.23C23.5 4.23 26.89 8.44 26.89 13.63C26.89 13.83 26.88 14.02 26.87 14.22C29.89 15.01 32.12 17.65 32.12 20.79C32.12 20.79 32.12 20.79 32.12 20.79C32.12 24.56 28.93 27.61 24.99 27.61C23.21 27.61 8.91 27.61 7.12 27.61C3.19 27.61 0 24.56 0 20.79C0 20.79 0 20.79 0 20.79C0 17.51 2.42 14.77 5.65 14.12C5.94 10.56 8.36 7.78 11.3 7.78C11.95 7.78 12.57 7.92 13.15 8.17C14.52 5.78 16.77 4.23 19.32 4.23Z" id="a6n93KrRhf"></path><radialGradient id="gradienta4Af83hen" gradientUnits="userSpaceOnUse" cx="15.74" cy="16.62" dx="-2.91" dy="43.76" r="32.93"><stop style="stop-color: #fcba03;stop-opacity: 1" offset="0%"></stop><stop style="stop-color: #cc9602;stop-opacity: 1" offset="44.6359459346755%"></stop><stop style="stop-color: #906a00;stop-opacity: 1" offset="100%"></stop></radialGradient><path d="M11.64 12.96L11.63 12.97L11.62 12.97L11.6 12.97L11.59 12.98L11.58 12.98L11.56 12.99L11.55 12.99L11.54 13L11.53 13.01L11.52 13.01L11.51 13.02L11.5 13.03L11.49 13.04L11.48 13.05L11.47 13.06L11.46 13.07L11.45 13.08L11.44 13.1L11.44 13.11L11.43 13.12L11.42 13.14L11.41 13.15L11.4 13.16L11.4 13.18L11.39 13.19L11.38 13.21L11.38 13.23L11.37 13.24L11.36 13.26L11.36 13.28L11.35 13.29L11.34 13.31L11.34 13.33L11.33 13.35L11.32 13.36L11.32 13.38L11.31 13.4L11.31 13.42L10.99 14.61L10.89 14.64L10.67 14.72L10.45 14.8L10.24 14.9L10.04 15L10.02 15.01L8.95 14.39L8.93 14.38L8.92 14.37L8.9 14.36L8.88 14.36L8.86 14.35L8.85 14.34L8.83 14.33L8.81 14.32L8.8 14.32L8.78 14.31L8.76 14.3L8.75 14.3L8.73 14.29L8.72 14.29L8.7 14.28L8.69 14.28L8.67 14.27L8.65 14.27L8.64 14.26L8.62 14.26L8.61 14.26L8.6 14.26L8.58 14.25L8.57 14.25L8.55 14.25L8.54 14.25L8.53 14.25L8.51 14.25L8.5 14.26L8.49 14.26L8.47 14.26L8.46 14.27L8.45 14.27L8.44 14.28L8.43 14.28L8.41 14.29L8.4 14.3L8.39 14.31L8.38 14.32L8.37 14.33L6.81 15.88L6.8 15.89L6.8 15.9L6.79 15.91L6.78 15.93L6.77 15.94L6.76 15.95L6.76 15.96L6.75 15.97L6.75 15.99L6.75 16L6.74 16.01L6.74 16.03L6.74 16.04L6.74 16.06L6.74 16.07L6.74 16.08L6.74 16.1L6.74 16.11L6.74 16.13L6.74 16.14L6.75 16.16L6.75 16.17L6.75 16.19L6.76 16.2L6.76 16.22L6.77 16.24L6.77 16.25L6.78 16.27L6.78 16.28L6.79 16.3L6.8 16.32L6.81 16.33L6.81 16.35L6.82 16.36L6.83 16.38L6.84 16.4L6.85 16.41L6.86 16.43L6.87 16.45L6.88 16.46L7.5 17.53L7.48 17.55L7.38 17.76L7.29 17.97L7.2 18.19L7.12 18.41L7.09 18.51L5.9 18.82L5.89 18.83L5.87 18.83L5.85 18.84L5.83 18.84L5.81 18.85L5.79 18.85L5.78 18.86L5.76 18.86L5.74 18.87L5.73 18.88L5.71 18.88L5.69 18.89L5.68 18.9L5.66 18.9L5.65 18.91L5.63 18.92L5.62 18.93L5.61 18.93L5.59 18.94L5.58 18.95L5.57 18.96L5.56 18.97L5.55 18.98L5.53 18.99L5.52 19L5.52 19.01L5.51 19.02L5.5 19.03L5.49 19.04L5.48 19.05L5.48 19.07L5.47 19.08L5.46 19.09L5.46 19.1L5.46 19.12L5.45 19.13L5.45 19.14L5.45 19.16L5.45 19.17L5.45 19.19L5.45 21.39L5.45 21.4L5.45 21.42L5.45 21.43L5.45 21.44L5.46 21.46L5.46 21.47L5.46 21.48L5.47 21.49L5.48 21.51L5.48 21.52L5.49 21.53L5.5 21.54L5.51 21.55L5.52 21.56L5.52 21.57L5.53 21.58L5.55 21.59L5.56 21.6L5.57 21.61L5.58 21.61L5.59 21.62L5.61 21.63L5.62 21.64L5.63 21.65L5.65 21.65L5.66 21.66L5.68 21.67L5.69 21.67L5.71 21.68L5.73 21.69L5.74 21.7L5.76 21.7L5.78 21.71L5.79 21.71L5.81 21.72L5.83 21.73L5.85 21.73L5.87 21.74L5.89 21.75L5.9 21.75L7.09 22.07L7.12 22.17L7.2 22.39L7.29 22.6L7.38 22.81L7.48 23.02L7.5 23.04L6.88 24.11L6.87 24.12L6.86 24.14L6.85 24.16L6.84 24.17L6.83 24.19L6.82 24.21L6.81 24.22L6.81 24.24L6.8 24.25L6.79 24.27L6.78 24.29L6.78 24.3L6.77 24.32L6.77 24.33L6.76 24.35L6.76 24.37L6.75 24.38L6.75 24.4L6.75 24.41L6.74 24.43L6.74 24.44L6.74 24.46L6.74 24.47L6.74 24.49L6.74 24.5L6.74 24.51L6.74 24.53L6.74 24.54L6.74 24.56L6.75 24.57L6.75 24.58L6.75 24.59L6.76 24.61L6.76 24.62L6.77 24.63L6.78 24.64L6.79 24.66L6.8 24.67L6.8 24.68L6.81 24.69L8.37 26.24L8.38 26.25L8.39 26.26L8.4 26.27L8.41 26.28L8.43 26.29L8.44 26.29L8.45 26.3L8.46 26.3L8.47 26.31L8.49 26.31L8.5 26.31L8.51 26.31L8.53 26.32L8.54 26.32L8.55 26.32L8.57 26.32L8.58 26.32L8.6 26.31L8.61 26.31L8.62 26.31L8.64 26.31L8.65 26.3L8.67 26.3L8.69 26.29L8.7 26.29L8.72 26.28L8.73 26.28L8.75 26.27L8.76 26.27L8.78 26.26L8.8 26.25L8.81 26.25L8.83 26.24L8.85 26.23L8.86 26.22L8.88 26.21L8.9 26.2L8.92 26.2L8.93 26.19L8.95 26.18L10.02 25.56L10.04 25.57L10.24 25.68L10.45 25.77L10.67 25.86L10.89 25.93L10.99 25.97L11.31 27.15L11.31 27.17L11.32 27.19L11.32 27.21L11.33 27.23L11.34 27.25L11.34 27.26L11.35 27.28L11.36 27.3L11.36 27.32L11.37 27.33L11.38 27.35L11.38 27.36L11.39 27.38L11.4 27.39L11.4 27.41L11.41 27.42L11.42 27.44L11.43 27.45L11.44 27.46L11.44 27.48L11.45 27.49L11.46 27.5L11.47 27.51L11.48 27.52L11.49 27.53L11.5 27.54L11.51 27.55L11.52 27.56L11.53 27.57L11.54 27.58L11.55 27.58L11.56 27.59L11.58 27.59L11.59 27.6L11.6 27.6L11.62 27.61L11.63 27.61L11.64 27.61L11.66 27.61L11.67 27.61L13.87 27.61L13.88 27.61L13.9 27.61L13.91 27.61L13.93 27.61L13.94 27.6L13.95 27.6L13.97 27.59L13.98 27.59L13.99 27.58L14 27.58L14.02 27.57L14.03 27.56L14.04 27.55L14.05 27.54L14.06 27.53L14.07 27.52L14.08 27.51L14.09 27.5L14.1 27.49L14.11 27.48L14.12 27.46L14.12 27.45L14.13 27.44L14.14 27.42L14.15 27.41L14.16 27.39L14.16 27.38L14.17 27.36L14.18 27.35L14.18 27.33L14.19 27.32L14.19 27.3L14.2 27.28L14.21 27.26L14.21 27.25L14.22 27.23L14.22 27.21L14.23 27.19L14.23 27.17L14.24 27.15L14.55 25.97L14.65 25.93L14.87 25.86L15.09 25.77L15.3 25.68L15.51 25.57L15.53 25.56L16.59 26.17L16.61 26.18L16.62 26.19L16.64 26.2L16.66 26.21L16.67 26.22L16.69 26.23L16.71 26.24L16.72 26.25L16.74 26.25L16.75 26.26L16.77 26.27L16.79 26.28L16.8 26.28L16.82 26.29L16.83 26.29L16.85 26.3L16.87 26.3L16.88 26.31L16.9 26.31L16.91 26.31L16.93 26.31L16.94 26.32L16.96 26.32L16.97 26.32L16.98 26.32L17 26.32L17.01 26.32L17.03 26.31L17.04 26.31L17.05 26.31L17.07 26.3L17.08 26.3L17.09 26.29L17.1 26.29L17.12 26.28L17.13 26.28L17.14 26.27L17.15 26.26L17.16 26.25L17.17 26.24L18.73 24.68L18.74 24.67L18.75 24.66L18.76 24.65L18.76 24.64L18.77 24.63L18.78 24.62L18.78 24.6L18.79 24.59L18.79 24.58L18.79 24.57L18.8 24.55L18.8 24.54L18.8 24.53L18.8 24.51L18.8 24.5L18.8 24.49L18.8 24.47L18.8 24.46L18.8 24.44L18.79 24.43L18.79 24.41L18.79 24.4L18.78 24.38L18.78 24.37L18.77 24.35L18.77 24.34L18.76 24.32L18.76 24.31L18.75 24.29L18.74 24.27L18.74 24.26L18.73 24.24L18.72 24.22L18.71 24.21L18.71 24.19L18.7 24.17L18.69 24.15L18.68 24.14L18.67 24.12L18.66 24.1L18.05 23.04L18.06 23.02L18.16 22.81L18.25 22.6L18.34 22.39L18.42 22.17L18.45 22.07L19.64 21.75L19.66 21.75L19.68 21.74L19.69 21.73L19.71 21.73L19.73 21.72L19.75 21.71L19.77 21.71L19.78 21.7L19.8 21.7L19.82 21.69L19.83 21.68L19.85 21.67L19.86 21.67L19.88 21.66L19.89 21.65L19.91 21.65L19.92 21.64L19.94 21.63L19.95 21.62L19.96 21.61L19.97 21.61L19.99 21.6L20 21.59L20.01 21.58L20.02 21.57L20.03 21.56L20.04 21.55L20.04 21.54L20.05 21.53L20.06 21.52L20.07 21.51L20.07 21.49L20.08 21.48L20.08 21.47L20.09 21.46L20.09 21.44L20.09 21.43L20.09 21.42L20.1 21.4L20.1 21.39L20.1 19.19L20.1 19.17L20.09 19.16L20.09 19.14L20.09 19.13L20.09 19.12L20.08 19.1L20.08 19.09L20.07 19.08L20.07 19.07L20.06 19.05L20.05 19.04L20.04 19.03L20.04 19.02L20.03 19.01L20.02 19L20.01 18.99L20 18.98L19.99 18.97L19.97 18.96L19.96 18.95L19.95 18.94L19.94 18.93L19.92 18.93L19.91 18.92L19.89 18.91L19.88 18.9L19.86 18.9L19.85 18.89L19.83 18.88L19.82 18.88L19.8 18.87L19.78 18.86L19.77 18.86L19.75 18.85L19.73 18.85L19.71 18.84L19.69 18.84L19.68 18.83L19.66 18.83L19.64 18.82L18.45 18.51L18.42 18.41L18.34 18.19L18.25 17.97L18.16 17.76L18.06 17.55L18.05 17.53L18.66 16.47L18.67 16.45L18.68 16.43L18.69 16.41L18.7 16.4L18.71 16.38L18.71 16.36L18.72 16.35L18.73 16.33L18.74 16.31L18.74 16.3L18.75 16.28L18.76 16.26L18.76 16.25L18.77 16.23L18.77 16.22L18.78 16.2L18.78 16.19L18.79 16.17L18.79 16.16L18.79 16.14L18.8 16.13L18.8 16.11L18.8 16.1L18.8 16.08L18.8 16.07L18.8 16.06L18.8 16.04L18.8 16.03L18.8 16.02L18.79 16L18.79 15.99L18.79 15.98L18.78 15.97L18.78 15.95L18.77 15.94L18.76 15.93L18.76 15.92L18.75 15.91L18.74 15.9L18.73 15.88L17.17 14.33L17.16 14.32L17.15 14.31L17.14 14.3L17.13 14.29L17.12 14.29L17.1 14.28L17.09 14.27L17.08 14.27L17.07 14.27L17.05 14.26L17.04 14.26L17.03 14.26L17.01 14.25L17 14.25L16.98 14.25L16.97 14.25L16.96 14.25L16.94 14.25L16.93 14.26L16.91 14.26L16.9 14.26L16.88 14.26L16.87 14.27L16.85 14.27L16.83 14.28L16.82 14.28L16.8 14.29L16.79 14.29L16.77 14.3L16.75 14.31L16.74 14.31L16.72 14.32L16.71 14.33L16.69 14.34L16.67 14.35L16.66 14.36L16.64 14.37L16.62 14.38L16.61 14.39L16.59 14.4L15.53 15.01L15.51 15L15.3 14.9L15.09 14.8L14.87 14.72L14.65 14.64L14.55 14.61L14.24 13.42L14.23 13.4L14.23 13.38L14.22 13.36L14.22 13.35L14.21 13.33L14.21 13.31L14.2 13.29L14.19 13.28L14.19 13.26L14.18 13.24L14.18 13.23L14.17 13.21L14.16 13.19L14.16 13.18L14.15 13.16L14.14 13.15L14.13 13.14L14.12 13.12L14.12 13.11L14.11 13.1L14.1 13.08L14.09 13.07L14.08 13.06L14.07 13.05L14.06 13.04L14.05 13.03L14.04 13.02L14.03 13.01L14.02 13.01L14 13L13.99 12.99L13.98 12.99L13.97 12.98L13.95 12.98L13.94 12.97L13.93 12.97L13.91 12.97L13.9 12.96L13.88 12.96L13.87 12.96L11.67 12.96L11.66 12.96L11.64 12.96ZM13.03 17.09L13.16 17.11L13.29 17.12L13.42 17.15L13.54 17.18L13.66 17.21L13.78 17.25L13.9 17.29L14.02 17.33L14.13 17.39L14.24 17.44L14.35 17.5L14.46 17.56L14.56 17.63L14.66 17.7L14.76 17.78L14.86 17.85L14.95 17.94L15.04 18.02L15.12 18.11L15.2 18.2L15.28 18.3L15.36 18.39L15.43 18.5L15.5 18.6L15.56 18.71L15.62 18.81L15.67 18.93L15.72 19.04L15.77 19.16L15.81 19.27L15.85 19.39L15.88 19.52L15.91 19.64L15.93 19.77L15.95 19.89L15.96 20.02L15.97 20.15L15.98 20.29L15.97 20.42L15.96 20.55L15.95 20.68L15.93 20.81L15.91 20.93L15.88 21.06L15.85 21.18L15.81 21.3L15.77 21.42L15.72 21.53L15.67 21.65L15.62 21.76L15.56 21.87L15.5 21.97L15.43 22.08L15.36 22.18L15.28 22.28L15.2 22.37L15.12 22.46L15.04 22.55L14.95 22.64L14.86 22.72L14.76 22.8L14.66 22.87L14.56 22.94L14.46 23.01L14.35 23.07L14.24 23.13L14.13 23.19L14.02 23.24L13.9 23.29L13.78 23.33L13.66 23.37L13.54 23.4L13.42 23.43L13.29 23.45L13.16 23.47L13.03 23.48L12.9 23.49L12.77 23.49L12.64 23.49L12.51 23.48L12.38 23.47L12.25 23.45L12.13 23.43L12 23.4L11.88 23.37L11.76 23.33L11.64 23.29L11.52 23.24L11.41 23.19L11.3 23.13L11.19 23.07L11.08 23.01L10.98 22.94L10.88 22.87L10.78 22.8L10.69 22.72L10.59 22.64L10.51 22.55L10.42 22.46L10.34 22.37L10.26 22.28L10.18 22.18L10.11 22.08L10.05 21.97L9.98 21.87L9.92 21.76L9.87 21.65L9.82 21.53L9.77 21.42L9.73 21.3L9.69 21.18L9.66 21.06L9.63 20.93L9.61 20.81L9.59 20.68L9.58 20.55L9.57 20.42L9.57 20.29L9.57 20.15L9.58 20.02L9.59 19.89L9.61 19.77L9.63 19.64L9.66 19.52L9.69 19.39L9.73 19.27L9.77 19.16L9.82 19.04L9.87 18.93L9.92 18.81L9.98 18.71L10.05 18.6L10.11 18.5L10.18 18.39L10.26 18.3L10.34 18.2L10.42 18.11L10.51 18.02L10.59 17.94L10.69 17.85L10.78 17.78L10.88 17.7L10.98 17.63L11.08 17.56L11.19 17.5L11.3 17.44L11.41 17.39L11.52 17.33L11.64 17.29L11.76 17.25L11.88 17.21L12 17.18L12.13 17.15L12.25 17.12L12.38 17.11L12.51 17.09L12.64 17.09L12.77 17.08L12.9 17.09L13.03 17.09Z" id="c5K132RaY"></path><radialGradient id="gradientj22bd8gQbZ" gradientUnits="userSpaceOnUse" cx="12.77" cy="20.29" dx="13.8" dy="24.37" r="4.21"><stop style="stop-color: #fcba03;stop-opacity: 1" offset="0%"></stop><stop style="stop-color: #ffffff;stop-opacity: 1" offset="100%"></stop></radialGradient></defs><g><g><g><use xlink:href="#a6n93KrRhf" opacity="1" fill="url(#gradienta4Af83hen)"></use></g><g><use xlink:href="#c5K132RaY" opacity="1" fill="url(#gradientj22bd8gQbZ)"></use></g></g></g></svg>