<?xml version="1.0" encoding="UTF-8" standalone="no"?>
<!DOCTYPE svg PUBLIC "-//W3C//DTD SVG 1.1//EN" "http://www.w3.org/Graphics/SVG/1.1/DTD/svg11.dtd">
<svg version="1.1" xmlns="http://www.w3.org/2000/svg" xmlns:xlink="http://www.w3.org/1999/xlink" preserveAspectRatio="xMidYMid meet" viewBox="0 0 32 32" width="32" height="32"><defs><path d="M19.32 4.23C23.5 4.23 26.89 8.44 26.89 13.63C26.89 13.83 26.88 14.02 26.87 14.22C29.89 15.01 32.12 17.65 32.12 20.79C32.12 20.79 32.12 20.79 32.12 20.79C32.12 24.56 28.93 27.61 24.99 27.61C23.21 27.61 8.91 27.61 7.12 27.61C3.19 27.61 0 24.56 0 20.79C0 20.79 0 20.79 0 20.79C0 17.51 2.42 14.77 5.65 14.12C5.94 10.56 8.36 7.78 11.3 7.78C11.95 7.78 12.57 7.92 13.15 8.17C14.52 5.78 16.77 4.23 19.32 4.23Z" id="a6n93KrRhf"></path><radialGradient id="gradienta4Af83hen" gradientUnits="userSpaceOnUse" cx="15.74" cy="16.62" dx="-2.91" dy="43.76" r="32.93"><stop style="stop-color: #fcba03;stop-opacity: 1" offset="0%"></stop><stop style="stop-color: #cc9602;stop-opacity: 1" offset="44.6359459346755%"></stop><stop style="stop-color: #906a00;stop-opacity: 1" offset="100%"></stop></radialGradient><path d="M12.47 12.05L12.45 12.05L12.44 12.05L12.43 12.06L12.41 12.06L12.4 12.07L12.39 12.07L12.38 12.08L12.37 12.08L12.36 12.09L12.35 12.1L12.34 12.11L12.33 12.11L12.32 12.12L12.31 12.13L12.3 12.14L12.29 12.15L12.28 12.17L12.28 12.18L12.27 12.19L12.26 12.2L12.25 12.22L12.25 12.23L12.24 12.24L12.23 12.26L12.22 12.27L12.22 12.29L12.21 12.3L12.2 12.32L12.2 12.33L12.19 12.35L12.19 12.37L12.18 12.38L12.17 12.4L12.17 12.42L12.16 12.43L12.16 12.45L12.15 12.47L12.14 12.49L11.84 13.63L11.74 13.66L11.53 13.73L11.33 13.81L11.12 13.91L10.93 14L10.91 14.01L9.88 13.42L9.87 13.41L9.85 13.4L9.83 13.39L9.82 13.39L9.8 13.38L9.79 13.37L9.77 13.36L9.75 13.36L9.74 13.35L9.72 13.34L9.71 13.34L9.69 13.33L9.67 13.32L9.66 13.32L9.64 13.31L9.63 13.31L9.61 13.3L9.6 13.3L9.59 13.3L9.57 13.29L9.56 13.29L9.54 13.29L9.53 13.29L9.52 13.29L9.5 13.29L9.49 13.29L9.48 13.29L9.46 13.29L9.45 13.29L9.44 13.29L9.43 13.3L9.42 13.3L9.4 13.3L9.39 13.31L9.38 13.32L9.37 13.32L9.36 13.33L9.35 13.34L9.34 13.35L9.33 13.36L7.84 14.85L7.83 14.86L7.82 14.87L7.81 14.88L7.8 14.89L7.79 14.9L7.79 14.91L7.78 14.93L7.78 14.94L7.77 14.95L7.77 14.96L7.77 14.98L7.76 14.99L7.76 15L7.76 15.02L7.76 15.03L7.76 15.04L7.76 15.06L7.76 15.07L7.76 15.08L7.77 15.1L7.77 15.11L7.77 15.13L7.78 15.14L7.78 15.16L7.78 15.17L7.79 15.19L7.79 15.2L7.8 15.22L7.81 15.23L7.81 15.25L7.82 15.26L7.83 15.28L7.84 15.3L7.84 15.31L7.85 15.33L7.86 15.34L7.87 15.36L7.88 15.37L7.89 15.39L7.9 15.41L8.49 16.43L8.48 16.45L8.38 16.65L8.29 16.85L8.21 17.06L8.13 17.27L8.1 17.37L6.96 17.67L6.94 17.67L6.93 17.68L6.91 17.68L6.89 17.69L6.87 17.69L6.86 17.7L6.84 17.7L6.82 17.71L6.81 17.71L6.79 17.72L6.78 17.73L6.76 17.73L6.75 17.74L6.73 17.75L6.72 17.75L6.7 17.76L6.69 17.77L6.68 17.78L6.66 17.78L6.65 17.79L6.64 17.8L6.63 17.81L6.62 17.82L6.61 17.83L6.6 17.84L6.59 17.85L6.58 17.86L6.57 17.87L6.56 17.88L6.56 17.89L6.55 17.9L6.55 17.91L6.54 17.93L6.54 17.94L6.53 17.95L6.53 17.96L6.53 17.98L6.52 17.99L6.52 18.01L6.52 18.02L6.52 20.13L6.52 20.14L6.52 20.16L6.53 20.17L6.53 20.18L6.53 20.2L6.54 20.21L6.54 20.22L6.55 20.23L6.55 20.24L6.56 20.25L6.56 20.26L6.57 20.27L6.58 20.28L6.59 20.29L6.6 20.3L6.61 20.31L6.62 20.32L6.63 20.33L6.64 20.34L6.65 20.35L6.66 20.35L6.68 20.36L6.69 20.37L6.7 20.38L6.72 20.38L6.73 20.39L6.75 20.4L6.76 20.4L6.78 20.41L6.79 20.42L6.81 20.42L6.82 20.43L6.84 20.44L6.86 20.44L6.87 20.45L6.89 20.46L6.91 20.46L6.93 20.47L6.94 20.47L6.96 20.48L8.1 20.78L8.13 20.88L8.21 21.09L8.29 21.3L8.38 21.5L8.48 21.7L8.49 21.72L7.9 22.74L7.89 22.75L7.88 22.77L7.87 22.78L7.86 22.8L7.85 22.82L7.84 22.83L7.84 22.85L7.83 22.86L7.82 22.88L7.81 22.89L7.81 22.91L7.8 22.93L7.79 22.94L7.79 22.96L7.78 22.97L7.78 22.99L7.78 23L7.77 23.02L7.77 23.03L7.77 23.04L7.76 23.06L7.76 23.07L7.76 23.09L7.76 23.1L7.76 23.11L7.76 23.13L7.76 23.14L7.76 23.15L7.77 23.17L7.77 23.18L7.77 23.19L7.78 23.21L7.78 23.22L7.79 23.23L7.79 23.24L7.8 23.25L7.81 23.26L7.82 23.28L7.83 23.29L7.84 23.3L9.33 24.79L9.34 24.8L9.35 24.81L9.36 24.81L9.37 24.82L9.38 24.83L9.39 24.83L9.4 24.84L9.42 24.84L9.43 24.85L9.44 24.85L9.45 24.85L9.46 24.86L9.48 24.86L9.49 24.86L9.5 24.86L9.52 24.86L9.53 24.86L9.54 24.85L9.56 24.85L9.57 24.85L9.59 24.85L9.6 24.84L9.61 24.84L9.63 24.84L9.64 24.83L9.66 24.83L9.67 24.82L9.69 24.81L9.71 24.81L9.72 24.8L9.74 24.8L9.75 24.79L9.77 24.78L9.79 24.77L9.8 24.77L9.82 24.76L9.83 24.75L9.85 24.74L9.87 24.73L9.88 24.72L10.91 24.13L10.93 24.14L11.12 24.24L11.33 24.33L11.53 24.42L11.74 24.49L11.84 24.52L12.14 25.66L12.15 25.68L12.16 25.7L12.16 25.71L12.17 25.73L12.17 25.75L12.18 25.77L12.19 25.78L12.19 25.8L12.2 25.81L12.2 25.83L12.21 25.85L12.22 25.86L12.22 25.88L12.23 25.89L12.24 25.91L12.25 25.92L12.25 25.93L12.26 25.95L12.27 25.96L12.28 25.97L12.28 25.98L12.29 25.99L12.3 26L12.31 26.01L12.32 26.02L12.33 26.03L12.34 26.04L12.35 26.05L12.36 26.06L12.37 26.06L12.38 26.07L12.39 26.08L12.4 26.08L12.41 26.09L12.43 26.09L12.44 26.09L12.45 26.1L12.47 26.1L12.48 26.1L12.49 26.1L14.6 26.1L14.62 26.1L14.63 26.1L14.64 26.1L14.66 26.09L14.67 26.09L14.68 26.09L14.7 26.08L14.71 26.08L14.72 26.07L14.73 26.06L14.74 26.06L14.75 26.05L14.76 26.04L14.77 26.03L14.78 26.02L14.79 26.01L14.8 26L14.81 25.99L14.82 25.98L14.83 25.97L14.84 25.96L14.85 25.95L14.85 25.93L14.86 25.92L14.87 25.91L14.88 25.89L14.88 25.88L14.89 25.86L14.9 25.85L14.9 25.83L14.91 25.81L14.91 25.8L14.92 25.78L14.92 25.77L14.93 25.75L14.94 25.73L14.94 25.71L14.94 25.7L14.95 25.68L14.95 25.66L15.26 24.52L15.35 24.49L15.56 24.42L15.77 24.33L15.97 24.24L16.17 24.14L16.2 24.13L17.21 24.72L17.23 24.73L17.24 24.74L17.26 24.75L17.28 24.76L17.29 24.77L17.31 24.77L17.32 24.78L17.34 24.79L17.35 24.8L17.37 24.8L17.38 24.81L17.4 24.82L17.42 24.82L17.43 24.83L17.45 24.83L17.46 24.84L17.48 24.84L17.49 24.85L17.5 24.85L17.52 24.85L17.53 24.85L17.55 24.86L17.56 24.86L17.58 24.86L17.59 24.86L17.6 24.86L17.62 24.86L17.63 24.85L17.64 24.85L17.66 24.85L17.67 24.85L17.68 24.84L17.69 24.84L17.7 24.83L17.72 24.82L17.73 24.82L17.74 24.81L17.75 24.8L17.76 24.79L17.77 24.78L19.26 23.29L19.27 23.28L19.28 23.27L19.29 23.26L19.3 23.25L19.3 23.24L19.31 23.23L19.31 23.21L19.32 23.2L19.32 23.19L19.33 23.18L19.33 23.17L19.33 23.15L19.33 23.14L19.33 23.13L19.33 23.11L19.33 23.1L19.33 23.09L19.33 23.07L19.33 23.06L19.32 23.05L19.32 23.03L19.32 23.02L19.31 23L19.31 22.99L19.31 22.97L19.3 22.96L19.29 22.94L19.29 22.93L19.28 22.91L19.28 22.9L19.27 22.88L19.26 22.87L19.26 22.85L19.25 22.83L19.24 22.82L19.23 22.8L19.22 22.78L19.22 22.77L19.21 22.75L19.2 22.73L18.61 21.71L18.62 21.7L18.72 21.5L18.81 21.3L18.89 21.09L18.97 20.88L18.99 20.78L20.13 20.48L20.15 20.47L20.17 20.47L20.19 20.46L20.21 20.46L20.22 20.45L20.24 20.44L20.26 20.44L20.27 20.43L20.29 20.42L20.31 20.42L20.32 20.41L20.34 20.4L20.35 20.4L20.37 20.39L20.38 20.38L20.39 20.38L20.41 20.37L20.42 20.36L20.43 20.35L20.44 20.35L20.46 20.34L20.47 20.33L20.48 20.32L20.49 20.31L20.5 20.3L20.51 20.29L20.52 20.28L20.52 20.27L20.53 20.26L20.54 20.25L20.55 20.24L20.55 20.23L20.56 20.22L20.56 20.21L20.56 20.2L20.57 20.18L20.57 20.17L20.57 20.16L20.57 20.14L20.57 20.13L20.57 18.02L20.57 18.01L20.57 17.99L20.57 17.98L20.57 17.96L20.56 17.95L20.56 17.94L20.56 17.93L20.55 17.91L20.55 17.9L20.54 17.89L20.53 17.88L20.52 17.87L20.52 17.86L20.51 17.85L20.5 17.84L20.49 17.83L20.48 17.82L20.47 17.81L20.46 17.8L20.44 17.79L20.43 17.78L20.42 17.78L20.41 17.77L20.39 17.76L20.38 17.75L20.37 17.75L20.35 17.74L20.34 17.73L20.32 17.73L20.31 17.72L20.29 17.71L20.27 17.71L20.26 17.7L20.24 17.7L20.22 17.69L20.21 17.69L20.19 17.68L20.17 17.68L20.15 17.67L20.13 17.67L18.99 17.37L18.97 17.27L18.89 17.06L18.81 16.85L18.72 16.65L18.62 16.45L18.61 16.43L19.2 15.41L19.21 15.39L19.22 15.38L19.22 15.36L19.23 15.34L19.24 15.33L19.25 15.31L19.26 15.29L19.26 15.28L19.27 15.26L19.28 15.25L19.28 15.23L19.29 15.22L19.29 15.2L19.3 15.18L19.31 15.17L19.31 15.16L19.31 15.14L19.32 15.13L19.32 15.11L19.32 15.1L19.33 15.08L19.33 15.07L19.33 15.06L19.33 15.04L19.33 15.03L19.33 15.02L19.33 15L19.33 14.99L19.33 14.98L19.33 14.96L19.32 14.95L19.32 14.94L19.31 14.93L19.31 14.92L19.3 14.91L19.3 14.89L19.29 14.88L19.28 14.87L19.27 14.86L19.26 14.85L17.77 13.36L17.76 13.35L17.75 13.34L17.74 13.33L17.73 13.33L17.72 13.32L17.7 13.31L17.69 13.31L17.68 13.3L17.67 13.3L17.66 13.29L17.64 13.29L17.63 13.29L17.62 13.29L17.6 13.29L17.59 13.29L17.58 13.29L17.56 13.29L17.55 13.29L17.53 13.29L17.52 13.29L17.5 13.29L17.49 13.3L17.48 13.3L17.46 13.31L17.45 13.31L17.43 13.31L17.42 13.32L17.4 13.33L17.38 13.33L17.37 13.34L17.35 13.35L17.34 13.35L17.32 13.36L17.31 13.37L17.29 13.38L17.28 13.39L17.26 13.39L17.24 13.4L17.23 13.41L17.21 13.42L16.19 14.01L16.17 14L15.97 13.91L15.77 13.81L15.56 13.73L15.35 13.66L15.26 13.63L14.95 12.49L14.95 12.47L14.94 12.45L14.94 12.43L14.94 12.42L14.93 12.4L14.92 12.38L14.92 12.37L14.91 12.35L14.91 12.33L14.9 12.32L14.9 12.3L14.89 12.29L14.88 12.27L14.88 12.26L14.87 12.24L14.86 12.23L14.85 12.22L14.85 12.2L14.84 12.19L14.83 12.18L14.82 12.17L14.81 12.15L14.8 12.14L14.79 12.13L14.78 12.12L14.77 12.11L14.76 12.11L14.75 12.1L14.74 12.09L14.73 12.08L14.72 12.08L14.71 12.07L14.7 12.07L14.68 12.06L14.67 12.06L14.66 12.05L14.64 12.05L14.63 12.05L14.62 12.05L14.6 12.05L12.49 12.05L12.48 12.05L12.47 12.05ZM13.8 16.01L13.92 16.02L14.05 16.04L14.17 16.06L14.29 16.09L14.4 16.12L14.52 16.16L14.63 16.2L14.74 16.24L14.85 16.29L14.96 16.34L15.07 16.4L15.17 16.46L15.27 16.53L15.36 16.59L15.46 16.67L15.55 16.74L15.64 16.82L15.72 16.9L15.8 16.99L15.88 17.07L15.96 17.16L16.03 17.26L16.1 17.36L16.16 17.45L16.22 17.56L16.28 17.66L16.33 17.77L16.38 17.88L16.42 17.99L16.47 18.1L16.5 18.22L16.53 18.34L16.56 18.45L16.58 18.58L16.6 18.7L16.61 18.82L16.62 18.95L16.62 19.07L16.62 19.2L16.61 19.33L16.6 19.45L16.58 19.57L16.56 19.69L16.53 19.81L16.5 19.93L16.47 20.05L16.42 20.16L16.38 20.27L16.33 20.38L16.28 20.49L16.22 20.59L16.16 20.69L16.1 20.79L16.03 20.89L15.96 20.98L15.88 21.07L15.8 21.16L15.72 21.25L15.64 21.33L15.55 21.41L15.46 21.48L15.36 21.55L15.27 21.62L15.17 21.69L15.07 21.75L14.96 21.8L14.85 21.86L14.74 21.91L14.63 21.95L14.52 21.99L14.4 22.03L14.29 22.06L14.17 22.08L14.05 22.11L13.92 22.12L13.8 22.14L13.68 22.14L13.55 22.15L13.42 22.14L13.3 22.14L13.17 22.12L13.05 22.11L12.93 22.08L12.81 22.06L12.69 22.03L12.58 21.99L12.46 21.95L12.35 21.91L12.24 21.86L12.14 21.8L12.03 21.75L11.93 21.69L11.83 21.62L11.73 21.55L11.64 21.48L11.55 21.41L11.46 21.33L11.38 21.25L11.29 21.16L11.21 21.07L11.14 20.98L11.07 20.89L11 20.79L10.94 20.69L10.87 20.59L10.82 20.49L10.77 20.38L10.72 20.27L10.67 20.16L10.63 20.05L10.6 19.93L10.56 19.81L10.54 19.69L10.52 19.57L10.5 19.45L10.49 19.33L10.48 19.2L10.48 19.07L10.48 18.95L10.49 18.82L10.5 18.7L10.52 18.58L10.54 18.45L10.56 18.34L10.6 18.22L10.63 18.1L10.67 17.99L10.72 17.88L10.77 17.77L10.82 17.66L10.87 17.56L10.94 17.45L11 17.36L11.07 17.26L11.14 17.16L11.21 17.07L11.29 16.99L11.38 16.9L11.46 16.82L11.55 16.74L11.64 16.67L11.73 16.59L11.83 16.53L11.93 16.46L12.03 16.4L12.14 16.34L12.24 16.29L12.35 16.24L12.46 16.2L12.58 16.16L12.69 16.12L12.81 16.09L12.93 16.06L13.05 16.04L13.17 16.02L13.3 16.01L13.42 16L13.55 16L13.68 16L13.8 16.01Z" id="a3qgPvDUbM"></path><radialGradient id="gradientb1q3rcH5nQ" gradientUnits="userSpaceOnUse" cx="13.55" cy="19.07" dx="14.54" dy="22.99" r="4.04"><stop style="stop-color: #fcba03;stop-opacity: 1" offset="0%"></stop><stop style="stop-color: #ffffff;stop-opacity: 1" offset="100%"></stop></radialGradient></defs><g><g><g><use xlink:href="#a6n93KrRhf" opacity="1" fill="url(#gradienta4Af83hen)"></use></g><g><use xlink:href="#a3qgPvDUbM" opacity="1" fill="url(#gradientb1q3rcH5nQ)"></use></g></g></g></svg>