<?xml version="1.0" encoding="UTF-8" standalone="no"?>
<!DOCTYPE svg PUBLIC "-//W3C//DTD SVG 1.1//EN" "http://www.w3.org/Graphics/SVG/1.1/DTD/svg11.dtd">
<svg version="1.1" xmlns="http://www.w3.org/2000/svg" xmlns:xlink="http://www.w3.org/1999/xlink" preserveAspectRatio="xMidYMid meet" viewBox="0 0 32 32" width="32" height="32"><defs><path d="M19.32 4.23C23.5 4.23 26.89 8.44 26.89 13.63C26.89 13.83 26.88 14.02 26.87 14.22C29.89 15.01 32.12 17.65 32.12 20.79C32.12 20.79 32.12 20.79 32.12 20.79C32.12 24.56 28.93 27.61 24.99 27.61C23.21 27.61 8.91 27.61 7.12 27.61C3.19 27.61 0 24.56 0 20.79C0 20.79 0 20.79 0 20.79C0 17.51 2.42 14.77 5.65 14.12C5.94 10.56 8.36 7.78 11.3 7.78C11.95 7.78 12.57 7.92 13.15 8.17C14.52 5.78 16.77 4.23 19.32 4.23Z" id="a6n93KrRhf"></path><radialGradient id="gradienta4Af83hen" gradientUnits="userSpaceOnUse" cx="15.74" cy="16.62" dx="-2.91" dy="43.76" r="32.93"><stop style="stop-color: #fcba03;stop-opacity: 1" offset="0%"></stop><stop style="stop-color: #cc9602;stop-opacity: 1" offset="44.6359459346755%"></stop><stop style="stop-color: #906a00;stop-opacity: 1" offset="100%"></stop></radialGradient><path d="M12.86 11.57L12.85 11.57L12.84 11.58L12.83 11.58L12.81 11.58L12.8 11.59L12.79 11.59L12.78 11.6L12.77 11.61L12.76 11.61L12.75 11.62L12.74 11.63L12.73 11.64L12.72 11.65L12.71 11.66L12.7 11.67L12.69 11.68L12.68 11.69L12.67 11.7L12.67 11.71L12.66 11.72L12.65 11.74L12.64 11.75L12.64 11.76L12.63 11.78L12.62 11.79L12.62 11.81L12.61 11.82L12.6 11.84L12.6 11.86L12.59 11.87L12.58 11.89L12.58 11.9L12.57 11.92L12.57 11.94L12.56 11.96L12.55 11.97L12.55 11.99L12.54 12.01L12.24 13.15L12.14 13.18L11.93 13.25L11.72 13.34L11.52 13.43L11.32 13.53L11.31 13.53L10.28 12.94L10.27 12.93L10.25 12.92L10.23 12.92L10.22 12.91L10.2 12.9L10.18 12.89L10.17 12.88L10.15 12.88L10.14 12.87L10.12 12.86L10.1 12.86L10.09 12.85L10.07 12.85L10.06 12.84L10.04 12.83L10.03 12.83L10.01 12.83L10 12.82L9.98 12.82L9.97 12.82L9.96 12.81L9.94 12.81L9.93 12.81L9.91 12.81L9.9 12.81L9.89 12.81L9.88 12.81L9.86 12.81L9.85 12.81L9.84 12.82L9.83 12.82L9.81 12.82L9.8 12.83L9.79 12.83L9.78 12.84L9.77 12.84L9.76 12.85L9.75 12.86L9.73 12.87L9.72 12.88L8.23 14.37L8.22 14.38L8.21 14.39L8.21 14.4L8.2 14.41L8.19 14.42L8.19 14.44L8.18 14.45L8.18 14.46L8.17 14.47L8.17 14.49L8.16 14.5L8.16 14.51L8.16 14.52L8.16 14.54L8.16 14.55L8.16 14.56L8.16 14.58L8.16 14.59L8.16 14.61L8.16 14.62L8.17 14.64L8.17 14.65L8.17 14.67L8.18 14.68L8.18 14.7L8.19 14.71L8.19 14.73L8.2 14.74L8.2 14.76L8.21 14.77L8.22 14.79L8.23 14.8L8.23 14.82L8.24 14.83L8.25 14.85L8.26 14.87L8.27 14.88L8.28 14.9L8.29 14.91L8.3 14.93L8.89 15.95L8.88 15.97L8.78 16.17L8.69 16.37L8.6 16.58L8.53 16.79L8.5 16.89L7.36 17.19L7.34 17.2L7.32 17.2L7.31 17.2L7.29 17.21L7.27 17.21L7.26 17.22L7.24 17.23L7.22 17.23L7.21 17.24L7.19 17.24L7.17 17.25L7.16 17.26L7.14 17.26L7.13 17.27L7.12 17.28L7.1 17.28L7.09 17.29L7.07 17.3L7.06 17.31L7.05 17.32L7.04 17.32L7.03 17.33L7.02 17.34L7.01 17.35L7 17.36L6.99 17.37L6.98 17.38L6.97 17.39L6.96 17.4L6.96 17.41L6.95 17.43L6.94 17.44L6.94 17.45L6.93 17.46L6.93 17.47L6.93 17.49L6.92 17.5L6.92 17.51L6.92 17.53L6.92 17.54L6.92 19.65L6.92 19.66L6.92 19.68L6.92 19.69L6.93 19.7L6.93 19.72L6.93 19.73L6.94 19.74L6.94 19.75L6.95 19.76L6.96 19.78L6.96 19.79L6.97 19.8L6.98 19.81L6.99 19.82L7 19.83L7.01 19.83L7.02 19.84L7.03 19.85L7.04 19.86L7.05 19.87L7.06 19.88L7.07 19.88L7.09 19.89L7.1 19.9L7.12 19.91L7.13 19.91L7.14 19.92L7.16 19.93L7.17 19.93L7.19 19.94L7.21 19.95L7.22 19.95L7.24 19.96L7.26 19.97L7.27 19.97L7.29 19.98L7.31 19.98L7.32 19.99L7.34 20L7.36 20L8.5 20.3L8.53 20.4L8.6 20.61L8.69 20.82L8.78 21.02L8.88 21.22L8.89 21.24L8.3 22.26L8.29 22.28L8.28 22.29L8.27 22.31L8.26 22.32L8.25 22.34L8.24 22.35L8.23 22.37L8.23 22.39L8.22 22.4L8.21 22.42L8.2 22.43L8.2 22.45L8.19 22.46L8.19 22.48L8.18 22.49L8.18 22.51L8.17 22.52L8.17 22.54L8.17 22.55L8.16 22.57L8.16 22.58L8.16 22.6L8.16 22.61L8.16 22.62L8.16 22.64L8.16 22.65L8.16 22.66L8.16 22.68L8.16 22.69L8.17 22.7L8.17 22.72L8.18 22.73L8.18 22.74L8.19 22.75L8.19 22.76L8.2 22.78L8.21 22.79L8.21 22.8L8.22 22.81L8.23 22.82L9.72 24.31L9.73 24.32L9.75 24.33L9.76 24.34L9.77 24.34L9.78 24.35L9.79 24.36L9.8 24.36L9.81 24.37L9.83 24.37L9.84 24.37L9.85 24.38L9.86 24.38L9.88 24.38L9.89 24.38L9.9 24.38L9.91 24.38L9.93 24.38L9.94 24.38L9.96 24.37L9.97 24.37L9.98 24.37L10 24.37L10.01 24.36L10.03 24.36L10.04 24.35L10.06 24.35L10.07 24.34L10.09 24.34L10.1 24.33L10.12 24.32L10.14 24.32L10.15 24.31L10.17 24.3L10.18 24.3L10.2 24.29L10.22 24.28L10.23 24.27L10.25 24.26L10.27 24.26L10.28 24.25L11.3 23.66L11.32 23.67L11.52 23.76L11.72 23.86L11.93 23.94L12.14 24.01L12.24 24.04L12.54 25.18L12.55 25.2L12.55 25.22L12.56 25.24L12.57 25.25L12.57 25.27L12.58 25.29L12.58 25.3L12.59 25.32L12.6 25.34L12.6 25.35L12.61 25.37L12.62 25.38L12.62 25.4L12.63 25.41L12.64 25.43L12.64 25.44L12.65 25.45L12.66 25.47L12.67 25.48L12.67 25.49L12.68 25.5L12.69 25.52L12.7 25.53L12.71 25.54L12.72 25.55L12.73 25.56L12.74 25.56L12.75 25.57L12.76 25.58L12.77 25.59L12.78 25.59L12.79 25.6L12.8 25.6L12.81 25.61L12.83 25.61L12.84 25.62L12.85 25.62L12.86 25.62L12.88 25.62L12.89 25.62L15 25.62L15.01 25.62L15.03 25.62L15.04 25.62L15.06 25.62L15.07 25.61L15.08 25.61L15.09 25.6L15.11 25.6L15.12 25.59L15.13 25.59L15.14 25.58L15.15 25.57L15.16 25.56L15.17 25.56L15.18 25.55L15.19 25.54L15.2 25.53L15.21 25.52L15.22 25.5L15.23 25.49L15.24 25.48L15.24 25.47L15.25 25.45L15.26 25.44L15.27 25.43L15.27 25.41L15.28 25.4L15.29 25.38L15.29 25.37L15.3 25.35L15.31 25.34L15.31 25.32L15.32 25.3L15.32 25.29L15.33 25.27L15.33 25.25L15.34 25.24L15.34 25.22L15.35 25.2L15.35 25.18L15.66 24.04L15.75 24.01L15.96 23.94L16.17 23.86L16.37 23.76L16.57 23.67L16.59 23.65L17.61 24.24L17.63 24.25L17.64 24.26L17.66 24.27L17.67 24.28L17.69 24.29L17.7 24.3L17.72 24.3L17.74 24.31L17.75 24.32L17.77 24.33L17.78 24.33L17.8 24.34L17.81 24.35L17.83 24.35L17.84 24.36L17.86 24.36L17.87 24.36L17.89 24.37L17.9 24.37L17.92 24.37L17.93 24.38L17.95 24.38L17.96 24.38L17.97 24.38L17.99 24.38L18 24.38L18.01 24.38L18.03 24.38L18.04 24.37L18.05 24.37L18.07 24.37L18.08 24.36L18.09 24.36L18.1 24.35L18.11 24.35L18.13 24.34L18.14 24.33L18.15 24.32L18.16 24.31L18.17 24.3L19.66 22.81L19.67 22.8L19.68 22.79L19.69 22.78L19.69 22.77L19.7 22.76L19.71 22.75L19.71 22.74L19.72 22.73L19.72 22.71L19.72 22.7L19.73 22.69L19.73 22.68L19.73 22.66L19.73 22.65L19.73 22.64L19.73 22.62L19.73 22.61L19.73 22.6L19.73 22.58L19.72 22.57L19.72 22.55L19.72 22.54L19.71 22.53L19.71 22.51L19.7 22.5L19.7 22.48L19.69 22.47L19.69 22.45L19.68 22.43L19.67 22.42L19.67 22.4L19.66 22.39L19.65 22.37L19.65 22.36L19.64 22.34L19.63 22.32L19.62 22.31L19.61 22.29L19.61 22.27L19.6 22.26L19.01 21.24L19.02 21.22L19.12 21.02L19.21 20.82L19.29 20.61L19.36 20.4L19.39 20.3L20.53 20L20.55 20L20.57 19.99L20.59 19.98L20.6 19.98L20.62 19.97L20.64 19.97L20.65 19.96L20.67 19.95L20.69 19.95L20.7 19.94L20.72 19.93L20.73 19.93L20.75 19.92L20.76 19.91L20.78 19.91L20.79 19.9L20.81 19.89L20.82 19.88L20.83 19.88L20.84 19.87L20.85 19.86L20.87 19.85L20.88 19.84L20.89 19.83L20.9 19.83L20.91 19.82L20.91 19.81L20.92 19.8L20.93 19.79L20.94 19.78L20.94 19.76L20.95 19.75L20.95 19.74L20.96 19.73L20.96 19.72L20.97 19.7L20.97 19.69L20.97 19.68L20.97 19.66L20.97 19.65L20.97 17.54L20.97 17.53L20.97 17.51L20.97 17.5L20.97 17.49L20.96 17.47L20.96 17.46L20.95 17.45L20.95 17.44L20.94 17.43L20.94 17.41L20.93 17.4L20.92 17.39L20.91 17.38L20.91 17.37L20.9 17.36L20.89 17.35L20.88 17.34L20.87 17.33L20.85 17.32L20.84 17.32L20.83 17.31L20.82 17.3L20.81 17.29L20.79 17.28L20.78 17.28L20.76 17.27L20.75 17.26L20.73 17.26L20.72 17.25L20.7 17.24L20.69 17.24L20.67 17.23L20.65 17.23L20.64 17.22L20.62 17.21L20.6 17.21L20.59 17.2L20.57 17.2L20.55 17.2L20.53 17.19L19.39 16.89L19.36 16.79L19.29 16.58L19.21 16.37L19.12 16.17L19.02 15.97L19.01 15.95L19.6 14.93L19.61 14.92L19.61 14.9L19.62 14.88L19.63 14.87L19.64 14.85L19.65 14.83L19.65 14.82L19.66 14.8L19.67 14.78L19.67 14.77L19.68 14.75L19.69 14.74L19.69 14.72L19.7 14.71L19.7 14.69L19.71 14.68L19.71 14.66L19.72 14.65L19.72 14.63L19.72 14.62L19.73 14.61L19.73 14.59L19.73 14.58L19.73 14.56L19.73 14.55L19.73 14.54L19.73 14.52L19.73 14.51L19.73 14.5L19.72 14.49L19.72 14.47L19.72 14.46L19.71 14.45L19.71 14.44L19.7 14.43L19.69 14.42L19.69 14.41L19.68 14.39L19.67 14.38L19.66 14.37L18.17 12.88L18.16 12.87L18.15 12.86L18.14 12.86L18.13 12.85L18.11 12.84L18.1 12.84L18.09 12.83L18.08 12.82L18.07 12.82L18.05 12.82L18.04 12.81L18.03 12.81L18.01 12.81L18 12.81L17.99 12.81L17.97 12.81L17.96 12.81L17.95 12.81L17.93 12.81L17.92 12.81L17.9 12.82L17.89 12.82L17.87 12.82L17.86 12.83L17.84 12.83L17.83 12.84L17.81 12.84L17.8 12.85L17.78 12.85L17.77 12.86L17.75 12.87L17.74 12.88L17.72 12.88L17.7 12.89L17.69 12.9L17.67 12.91L17.66 12.92L17.64 12.93L17.63 12.94L17.61 12.95L16.59 13.54L16.57 13.53L16.37 13.43L16.17 13.34L15.96 13.25L15.75 13.18L15.66 13.15L15.35 12.01L15.35 11.99L15.34 11.97L15.34 11.96L15.33 11.94L15.33 11.92L15.32 11.9L15.32 11.89L15.31 11.87L15.31 11.86L15.3 11.84L15.29 11.82L15.29 11.81L15.28 11.79L15.27 11.78L15.27 11.76L15.26 11.75L15.25 11.74L15.24 11.72L15.24 11.71L15.23 11.7L15.22 11.69L15.21 11.68L15.2 11.67L15.19 11.66L15.18 11.65L15.17 11.64L15.16 11.63L15.15 11.62L15.14 11.61L15.13 11.61L15.12 11.6L15.11 11.59L15.09 11.59L15.08 11.58L15.07 11.58L15.06 11.58L15.04 11.57L15.03 11.57L15.01 11.57L15 11.57L12.89 11.57L12.88 11.57L12.86 11.57ZM14.2 15.53L14.32 15.55L14.45 15.56L14.57 15.59L14.69 15.61L14.8 15.64L14.92 15.68L15.03 15.72L15.14 15.76L15.25 15.81L15.36 15.87L15.46 15.92L15.57 15.98L15.66 16.05L15.76 16.12L15.86 16.19L15.95 16.26L16.03 16.34L16.12 16.42L16.2 16.51L16.28 16.6L16.36 16.69L16.43 16.78L16.5 16.88L16.56 16.98L16.62 17.08L16.68 17.18L16.73 17.29L16.78 17.4L16.82 17.51L16.86 17.62L16.9 17.74L16.93 17.86L16.96 17.98L16.98 18.1L17 18.22L17.01 18.34L17.02 18.47L17.02 18.6L17.02 18.72L17.01 18.85L17 18.97L16.98 19.09L16.96 19.22L16.93 19.33L16.9 19.45L16.86 19.57L16.82 19.68L16.78 19.79L16.73 19.9L16.68 20.01L16.62 20.11L16.56 20.22L16.5 20.31L16.43 20.41L16.36 20.51L16.28 20.6L16.2 20.68L16.12 20.77L16.03 20.85L15.95 20.93L15.86 21L15.76 21.08L15.66 21.14L15.57 21.21L15.46 21.27L15.36 21.33L15.25 21.38L15.14 21.43L15.03 21.47L14.92 21.51L14.8 21.55L14.69 21.58L14.57 21.61L14.45 21.63L14.32 21.65L14.2 21.66L14.07 21.67L13.95 21.67L13.82 21.67L13.69 21.66L13.57 21.65L13.45 21.63L13.33 21.61L13.21 21.58L13.09 21.55L12.98 21.51L12.86 21.47L12.75 21.43L12.64 21.38L12.53 21.33L12.43 21.27L12.33 21.21L12.23 21.14L12.13 21.08L12.04 21L11.95 20.93L11.86 20.85L11.77 20.77L11.69 20.68L11.61 20.6L11.54 20.51L11.47 20.41L11.4 20.31L11.33 20.22L11.27 20.11L11.22 20.01L11.16 19.9L11.11 19.79L11.07 19.68L11.03 19.57L10.99 19.45L10.96 19.33L10.94 19.22L10.91 19.09L10.9 18.97L10.88 18.85L10.88 18.72L10.87 18.6L10.88 18.47L10.88 18.34L10.9 18.22L10.91 18.1L10.94 17.98L10.96 17.86L10.99 17.74L11.03 17.62L11.07 17.51L11.11 17.4L11.16 17.29L11.22 17.18L11.27 17.08L11.33 16.98L11.4 16.88L11.47 16.78L11.54 16.69L11.61 16.6L11.69 16.51L11.77 16.42L11.86 16.34L11.95 16.26L12.04 16.19L12.13 16.12L12.23 16.05L12.33 15.98L12.43 15.92L12.53 15.87L12.64 15.81L12.75 15.76L12.86 15.72L12.98 15.68L13.09 15.64L13.21 15.61L13.33 15.59L13.45 15.56L13.57 15.55L13.69 15.53L13.82 15.53L13.95 15.52L14.07 15.53L14.2 15.53Z" id="c3QH1pyMVR"></path><radialGradient id="gradiente27DWbLIa" gradientUnits="userSpaceOnUse" cx="13.95" cy="18.6" dx="14.94" dy="22.51" r="4.04"><stop style="stop-color: #fcba03;stop-opacity: 1" offset="0%"></stop><stop style="stop-color: #ffffff;stop-opacity: 1" offset="100%"></stop></radialGradient></defs><g><g><g><use xlink:href="#a6n93KrRhf" opacity="1" fill="url(#gradienta4Af83hen)"></use></g><g><use xlink:href="#c3QH1pyMVR" opacity="1" fill="url(#gradiente27DWbLIa)"></use></g></g></g></svg>