<?xml version="1.0" encoding="UTF-8" standalone="no"?>
<!DOCTYPE svg PUBLIC "-//W3C//DTD SVG 1.1//EN" "http://www.w3.org/Graphics/SVG/1.1/DTD/svg11.dtd">
<svg version="1.1" xmlns="http://www.w3.org/2000/svg" xmlns:xlink="http://www.w3.org/1999/xlink" preserveAspectRatio="xMidYMid meet" viewBox="0 0 640 640" width="128" height="128"><defs><path d="M314.1 167.87C345.69 167.87 371.3 199.67 371.3 238.9C371.3 240.37 371.27 241.85 371.19 243.3C394 249.27 410.78 269.25 410.78 292.98C410.78 292.98 410.78 292.98 410.78 292.98C410.78 321.41 386.69 344.47 356.98 344.47C343.48 344.47 235.52 344.47 222.03 344.47C192.32 344.47 168.23 321.41 168.23 292.98C168.23 292.98 168.23 292.98 168.23 292.98C168.23 268.18 186.54 247.48 210.91 242.59C213.1 215.71 231.37 194.73 253.59 194.73C258.48 194.73 263.16 195.74 267.54 197.6C277.93 179.61 294.91 167.87 314.1 167.87Z" id="bvDcyfi9n"></path><radialGradient id="gradientaV4eDHYXV" gradientUnits="userSpaceOnUse" cx="287.09" cy="261.49" dx="146.24" dy="466.45" r="248.69"><stop style="stop-color: #fcba03;stop-opacity: 1" offset="0%"></stop><stop style="stop-color: #cc9602;stop-opacity: 1" offset="44.6359459346755%"></stop><stop style="stop-color: #906a00;stop-opacity: 1" offset="100%"></stop></radialGradient><path d="M256.16 233.84L256.05 233.86L255.95 233.88L255.85 233.9L255.75 233.93L255.66 233.97L255.57 234.01L255.48 234.05L255.39 234.1L255.31 234.16L255.23 234.22L255.15 234.28L255.07 234.35L255 234.42L254.93 234.5L254.86 234.58L254.79 234.66L254.72 234.75L254.66 234.84L254.6 234.94L254.54 235.04L254.48 235.14L254.42 235.25L254.36 235.35L254.31 235.47L254.25 235.58L254.2 235.7L254.15 235.82L254.1 235.94L254.05 236.07L254 236.19L253.95 236.32L253.9 236.46L253.85 236.59L253.8 236.73L253.76 236.86L253.71 237L253.66 237.14L253.62 237.29L251.23 246.26L250.47 246.49L248.81 247.08L247.19 247.73L245.59 248.45L244.03 249.22L243.9 249.29L235.83 244.62L235.7 244.55L235.57 244.49L235.43 244.42L235.3 244.36L235.17 244.29L235.05 244.23L234.92 244.17L234.79 244.12L234.67 244.06L234.54 244.01L234.42 243.96L234.3 243.91L234.18 243.86L234.06 243.82L233.94 243.78L233.82 243.74L233.71 243.71L233.59 243.68L233.48 243.65L233.37 243.63L233.26 243.61L233.15 243.59L233.04 243.58L232.93 243.58L232.83 243.57L232.72 243.57L232.62 243.58L232.52 243.59L232.42 243.6L232.32 243.62L232.23 243.65L232.13 243.68L232.04 243.72L231.95 243.76L231.86 243.81L231.77 243.86L231.68 243.92L231.6 243.98L231.51 244.05L231.43 244.13L219.7 255.87L219.62 255.95L219.55 256.03L219.48 256.12L219.42 256.21L219.37 256.3L219.32 256.39L219.27 256.48L219.23 256.58L219.2 256.68L219.17 256.78L219.15 256.88L219.13 256.98L219.12 257.08L219.11 257.19L219.1 257.3L219.1 257.4L219.11 257.51L219.12 257.62L219.13 257.74L219.15 257.85L219.17 257.96L219.19 258.08L219.22 258.19L219.26 258.31L219.29 258.43L219.33 258.55L219.37 258.67L219.42 258.79L219.47 258.91L219.52 259.03L219.58 259.15L219.63 259.28L219.69 259.4L219.76 259.52L219.82 259.65L219.89 259.77L219.96 259.89L220.03 260.02L220.11 260.14L220.19 260.27L224.85 268.32L224.75 268.49L223.98 270.06L223.27 271.65L222.61 273.28L222.03 274.94L221.79 275.69L212.82 278.09L212.68 278.12L212.54 278.15L212.4 278.19L212.26 278.23L212.12 278.27L211.99 278.31L211.86 278.35L211.73 278.4L211.6 278.44L211.47 278.49L211.35 278.54L211.23 278.59L211.11 278.64L211 278.7L210.89 278.75L210.78 278.81L210.67 278.87L210.57 278.93L210.47 279L210.37 279.06L210.28 279.13L210.19 279.2L210.11 279.27L210.03 279.35L209.95 279.42L209.88 279.5L209.81 279.58L209.75 279.66L209.69 279.75L209.63 279.84L209.58 279.93L209.54 280.02L209.5 280.11L209.46 280.21L209.43 280.31L209.41 280.41L209.39 280.52L209.37 280.63L209.36 280.74L209.36 280.85L209.36 297.45L209.36 297.56L209.37 297.67L209.39 297.78L209.41 297.88L209.43 297.98L209.46 298.08L209.5 298.17L209.54 298.26L209.58 298.35L209.63 298.44L209.69 298.52L209.75 298.6L209.81 298.68L209.88 298.76L209.95 298.83L210.03 298.9L210.11 298.97L210.19 299.04L210.28 299.11L210.37 299.17L210.47 299.23L210.57 299.29L210.67 299.35L210.78 299.41L210.89 299.47L211 299.52L211.11 299.58L211.23 299.63L211.35 299.68L211.47 299.73L211.6 299.78L211.73 299.83L211.86 299.88L211.99 299.93L212.12 299.98L212.26 300.03L212.4 300.07L212.54 300.12L212.68 300.17L212.82 300.21L221.79 302.6L222.03 303.36L222.61 305.02L223.27 306.64L223.98 308.24L224.75 309.8L224.84 309.96L220.19 318L220.11 318.12L220.03 318.25L219.96 318.37L219.89 318.5L219.82 318.62L219.76 318.74L219.69 318.87L219.63 318.99L219.58 319.11L219.52 319.23L219.47 319.36L219.42 319.48L219.37 319.6L219.33 319.72L219.29 319.84L219.26 319.95L219.22 320.07L219.19 320.19L219.17 320.3L219.15 320.42L219.13 320.53L219.12 320.64L219.11 320.75L219.1 320.86L219.1 320.97L219.11 321.08L219.12 321.18L219.13 321.29L219.15 321.39L219.17 321.49L219.2 321.59L219.23 321.69L219.27 321.78L219.32 321.88L219.37 321.97L219.42 322.06L219.48 322.15L219.55 322.23L219.62 322.32L219.7 322.4L231.43 334.13L231.51 334.21L231.6 334.28L231.68 334.35L231.77 334.41L231.86 334.46L231.95 334.51L232.04 334.55L232.13 334.58L232.23 334.61L232.32 334.64L232.42 334.66L232.52 334.68L232.62 334.69L232.72 334.69L232.83 334.69L232.93 334.69L233.04 334.68L233.15 334.67L233.26 334.65L233.37 334.63L233.48 334.61L233.59 334.58L233.71 334.55L233.82 334.52L233.94 334.48L234.06 334.44L234.18 334.4L234.3 334.36L234.42 334.31L234.54 334.26L234.67 334.2L234.79 334.15L234.92 334.09L235.05 334.03L235.17 333.97L235.3 333.91L235.43 333.84L235.57 333.78L235.7 333.71L235.83 333.64L243.87 328.99L244.03 329.08L245.59 329.85L247.19 330.56L248.81 331.22L250.47 331.8L251.23 332.04L253.62 341.01L253.66 341.15L253.71 341.29L253.76 341.43L253.8 341.57L253.85 341.71L253.9 341.84L253.95 341.97L254 342.1L254.05 342.23L254.1 342.36L254.15 342.48L254.2 342.6L254.25 342.72L254.31 342.83L254.36 342.94L254.42 343.05L254.48 343.16L254.54 343.26L254.6 343.36L254.66 343.45L254.72 343.55L254.79 343.64L254.86 343.72L254.93 343.8L255 343.88L255.07 343.95L255.15 344.02L255.23 344.08L255.31 344.14L255.39 344.2L255.48 344.25L255.57 344.29L255.66 344.33L255.75 344.37L255.85 344.4L255.95 344.42L256.05 344.44L256.16 344.46L256.27 344.47L256.38 344.47L272.98 344.47L273.09 344.47L273.2 344.46L273.31 344.44L273.42 344.42L273.52 344.4L273.62 344.37L273.72 344.33L273.81 344.29L273.9 344.25L273.99 344.2L274.08 344.14L274.17 344.08L274.25 344.02L274.33 343.95L274.41 343.88L274.48 343.8L274.56 343.72L274.63 343.64L274.7 343.55L274.77 343.45L274.83 343.36L274.9 343.26L274.96 343.16L275.02 343.05L275.08 342.94L275.13 342.83L275.19 342.72L275.24 342.6L275.29 342.48L275.34 342.36L275.39 342.23L275.43 342.1L275.48 341.97L275.52 341.84L275.56 341.71L275.6 341.57L275.64 341.43L275.68 341.29L275.71 341.15L275.74 341.01L278.14 332.04L278.89 331.8L280.55 331.22L282.18 330.56L283.77 329.85L285.34 329.08L285.53 328.98L293.53 333.61L293.65 333.69L293.78 333.76L293.9 333.84L294.03 333.91L294.15 333.97L294.28 334.04L294.4 334.1L294.52 334.16L294.64 334.22L294.77 334.28L294.89 334.33L295.01 334.38L295.13 334.42L295.25 334.47L295.37 334.51L295.49 334.54L295.6 334.57L295.72 334.6L295.83 334.63L295.95 334.65L296.06 334.67L296.17 334.68L296.28 334.69L296.39 334.69L296.5 334.69L296.61 334.69L296.71 334.68L296.82 334.67L296.92 334.65L297.02 334.62L297.12 334.6L297.22 334.56L297.31 334.52L297.41 334.48L297.5 334.43L297.59 334.38L297.68 334.32L297.76 334.25L297.85 334.18L297.93 334.1L309.66 322.36L309.74 322.28L309.81 322.2L309.88 322.11L309.94 322.03L309.99 321.94L310.04 321.85L310.08 321.76L310.12 321.66L310.15 321.57L310.17 321.47L310.19 321.38L310.21 321.28L310.22 321.18L310.22 321.07L310.22 320.97L310.22 320.86L310.21 320.76L310.2 320.65L310.19 320.54L310.17 320.43L310.14 320.32L310.12 320.21L310.09 320.09L310.05 319.97L310.02 319.86L309.98 319.74L309.93 319.62L309.89 319.5L309.84 319.38L309.79 319.25L309.74 319.13L309.68 319L309.62 318.88L309.56 318.75L309.5 318.62L309.44 318.49L309.38 318.36L309.31 318.23L309.24 318.1L309.18 317.96L304.53 309.95L304.61 309.8L305.38 308.24L306.1 306.64L306.75 305.02L307.34 303.36L307.57 302.6L316.54 300.21L316.68 300.17L316.83 300.12L316.97 300.07L317.1 300.03L317.24 299.98L317.37 299.93L317.51 299.88L317.63 299.83L317.76 299.78L317.89 299.73L318.01 299.68L318.13 299.63L318.25 299.58L318.36 299.52L318.48 299.47L318.58 299.41L318.69 299.35L318.79 299.29L318.89 299.23L318.99 299.17L319.08 299.11L319.17 299.04L319.25 298.97L319.33 298.9L319.41 298.83L319.48 298.76L319.55 298.68L319.61 298.6L319.67 298.52L319.73 298.44L319.78 298.35L319.82 298.26L319.86 298.17L319.9 298.08L319.93 297.98L319.95 297.88L319.97 297.78L319.99 297.67L320 297.56L320 297.45L320 280.85L320 280.74L319.99 280.63L319.97 280.52L319.95 280.41L319.93 280.31L319.9 280.21L319.86 280.11L319.82 280.02L319.78 279.93L319.73 279.84L319.67 279.75L319.61 279.66L319.55 279.58L319.48 279.5L319.41 279.42L319.33 279.35L319.25 279.27L319.17 279.2L319.08 279.13L318.99 279.06L318.89 279L318.79 278.93L318.69 278.87L318.58 278.81L318.48 278.75L318.36 278.7L318.25 278.64L318.13 278.59L318.01 278.54L317.89 278.49L317.76 278.44L317.63 278.4L317.51 278.35L317.37 278.31L317.24 278.27L317.1 278.23L316.97 278.19L316.83 278.15L316.68 278.12L316.54 278.09L307.57 275.69L307.34 274.94L306.75 273.28L306.1 271.65L305.38 270.06L304.61 268.49L304.52 268.34L309.18 260.3L309.24 260.17L309.31 260.03L309.38 259.9L309.44 259.77L309.5 259.64L309.56 259.51L309.62 259.39L309.68 259.26L309.74 259.13L309.79 259.01L309.84 258.89L309.89 258.77L309.93 258.65L309.98 258.53L310.02 258.41L310.05 258.29L310.09 258.17L310.12 258.06L310.14 257.95L310.17 257.83L310.19 257.72L310.2 257.61L310.21 257.51L310.22 257.4L310.22 257.3L310.22 257.19L310.22 257.09L310.21 256.99L310.19 256.89L310.17 256.79L310.15 256.7L310.12 256.6L310.08 256.51L310.04 256.42L309.99 256.33L309.94 256.24L309.88 256.15L309.81 256.07L309.74 255.98L309.66 255.9L297.93 244.16L297.85 244.09L297.76 244.01L297.68 243.95L297.59 243.89L297.5 243.83L297.41 243.78L297.31 243.74L297.22 243.7L297.12 243.67L297.02 243.64L296.92 243.62L296.82 243.6L296.71 243.59L296.61 243.58L296.5 243.57L296.39 243.57L296.28 243.58L296.17 243.59L296.06 243.6L295.95 243.62L295.83 243.64L295.72 243.66L295.6 243.69L295.49 243.72L295.37 243.76L295.25 243.8L295.13 243.84L295.01 243.89L294.89 243.94L294.77 243.99L294.64 244.04L294.52 244.1L294.4 244.16L294.28 244.23L294.15 244.29L294.03 244.36L293.9 244.43L293.78 244.5L293.65 244.58L293.53 244.65L285.49 249.31L285.34 249.22L283.77 248.45L282.18 247.73L280.55 247.08L278.89 246.49L278.14 246.26L275.74 237.29L275.71 237.14L275.68 237L275.64 236.86L275.6 236.73L275.56 236.59L275.52 236.46L275.48 236.32L275.43 236.19L275.39 236.07L275.34 235.94L275.29 235.82L275.24 235.7L275.19 235.58L275.13 235.47L275.08 235.35L275.02 235.25L274.96 235.14L274.9 235.04L274.83 234.94L274.77 234.84L274.7 234.75L274.63 234.66L274.56 234.58L274.48 234.5L274.41 234.42L274.33 234.35L274.25 234.28L274.17 234.22L274.08 234.16L273.99 234.1L273.9 234.05L273.81 234.01L273.72 233.97L273.62 233.93L273.52 233.9L273.42 233.88L273.31 233.86L273.2 233.84L273.09 233.83L272.98 233.83L256.38 233.83L256.27 233.83L256.16 233.84ZM266.67 265.03L267.64 265.13L268.61 265.26L269.56 265.44L270.5 265.65L271.42 265.9L272.33 266.18L273.22 266.5L274.1 266.85L274.96 267.23L275.8 267.65L276.63 268.1L277.43 268.57L278.21 269.08L278.97 269.62L279.71 270.18L280.43 270.77L281.12 271.39L281.79 272.04L282.44 272.7L283.06 273.4L283.65 274.12L284.21 274.86L284.75 275.62L285.26 276.4L285.73 277.2L286.18 278.03L286.6 278.87L286.98 279.73L287.33 280.61L287.65 281.5L287.93 282.41L288.18 283.33L288.39 284.27L288.57 285.22L288.7 286.19L288.8 287.16L288.86 288.15L288.88 289.15L288.86 290.15L288.8 291.13L288.7 292.11L288.57 293.07L288.39 294.03L288.18 294.96L287.93 295.89L287.65 296.8L287.33 297.69L286.98 298.57L286.6 299.43L286.18 300.27L285.73 301.09L285.26 301.9L284.75 302.68L284.21 303.44L283.65 304.18L283.06 304.9L282.44 305.59L281.79 306.26L281.12 306.91L280.43 307.53L279.71 308.12L278.97 308.68L278.21 309.22L277.43 309.73L276.63 310.2L275.8 310.65L274.96 311.07L274.1 311.45L273.22 311.8L272.33 312.12L271.42 312.4L270.5 312.65L269.56 312.86L268.61 313.03L267.64 313.17L266.67 313.27L265.68 313.33L264.68 313.35L263.68 313.33L262.7 313.27L261.72 313.17L260.76 313.03L259.8 312.86L258.86 312.65L257.94 312.4L257.03 312.12L256.14 311.8L255.26 311.45L254.4 311.07L253.56 310.65L252.74 310.2L251.93 309.73L251.15 309.22L250.39 308.68L249.65 308.12L248.93 307.53L248.24 306.91L247.57 306.26L246.92 305.59L246.3 304.9L245.71 304.18L245.15 303.44L244.61 302.68L244.1 301.9L243.63 301.09L243.18 300.27L242.76 299.43L242.38 298.57L242.03 297.69L241.71 296.8L241.43 295.89L241.18 294.96L240.97 294.03L240.8 293.07L240.66 292.11L240.56 291.13L240.5 290.15L240.48 289.15L240.5 288.15L240.56 287.16L240.66 286.19L240.8 285.22L240.97 284.27L241.18 283.33L241.43 282.41L241.71 281.5L242.03 280.61L242.38 279.73L242.76 278.87L243.18 278.03L243.63 277.2L244.1 276.4L244.61 275.62L245.15 274.86L245.71 274.12L246.3 273.4L246.92 272.7L247.57 272.04L248.24 271.39L248.93 270.77L249.65 270.18L250.39 269.62L251.15 269.08L251.93 268.57L252.74 268.1L253.56 267.65L254.4 267.23L255.26 266.85L256.14 266.5L257.03 266.18L257.94 265.9L258.86 265.65L259.8 265.44L260.76 265.26L261.72 265.13L262.7 265.03L263.68 264.97L264.68 264.95L265.68 264.97L266.67 265.03Z" id="b3plRnx0X"></path><radialGradient id="gradientb1vKUAiv1o" gradientUnits="userSpaceOnUse" cx="264.68" cy="289.15" dx="272.48" dy="320" r="31.82"><stop style="stop-color: #fcba03;stop-opacity: 1" offset="0%"></stop><stop style="stop-color: #ffffff;stop-opacity: 1" offset="100%"></stop></radialGradient></defs><g><g><g><use xlink:href="#bvDcyfi9n" opacity="1" fill="url(#gradientaV4eDHYXV)"></use></g><g><use xlink:href="#b3plRnx0X" opacity="1" fill="url(#gradientb1vKUAiv1o)"></use></g></g></g></svg>