<svg width="120" height="60" xmlns="http://www.w3.org/2000/svg" xmlns:xlink="http://www.w3.org/1999/xlink" preserveAspectRatio="xMidYMid meet">
 <defs>
  <path d="m30,25l85,0l0,9l-85,0l0,-9z" id="e1qeLvgnFE"/>
  <path d="m-0.66,-0.55l0,62l62,0l0,-62l-62,0z" id="fO5jbjpq6"/>
  <path d="m103.84,15.84c8.55,0 15.48,6.34 15.48,14.16c0,0 0,0 0,0c0,7.82 -6.93,14.16 -15.48,14.16c-0.95,0 -1.89,-0.08 -2.82,-0.24c0,-1.85 0,-11.13 0,-27.84c1.25,-0.16 2.19,-0.24 2.82,-0.24z" id="b83KLLs3n"/>
 </defs>
 <g>
  <title>background</title>
  <rect x="-1" y="-1" width="122" height="62" id="canvas_background" fill="none"/>
 </g>
 <g>
  <title>Layer 1</title>
  <g id="svg_1">
   <g id="svg_2">
    <g id="svg_3">
     <use x="-25" y="0" xlink:href="#e1qeLvgnFE" fill="#ffffff" id="svg_4"/>
     <g id="svg_5">
      <use x="-25" y="0" xlink:href="#e1qeLvgnFE" fill-opacity="0" stroke="#000000" stroke-width="1.5" id="svg_6"/>
     </g>
    </g>
    <g id="svg_7">
     <use xlink:href="#b17QDyrgUF" fill="#000000" fill-opacity="0" id="svg_8"/>
     <g id="svg_9"/>
    </g>
    <g id="svg_11">
     <use xlink:href="#fO5jbjpq6" fill="#000000" fill-opacity="0" id="svg_12"/>
     <g id="svg_13">
      <use xlink:href="#fO5jbjpq6" fill-opacity="0" stroke="#000000" stroke-opacity="0" id="svg_14"/>
     </g>
    </g>
    <rect fill="#fff" stroke-width="1.5" x="0.5" y="19.43164" width="24" height="20" id="svg_19" stroke="#000"/>
   </g>
  </g>
 </g>
</svg>