<svg width="120" height="60" xmlns="http://www.w3.org/2000/svg" xmlns:xlink="http://www.w3.org/1999/xlink" preserveAspectRatio="xMidYMid meet">
 <defs>
  <path id="e1qeLvgnFE" d="m30,25l85,0l0,9l-85,0l0,-9z"/>
  <path id="b17QDyrgUF" d="m121.34,-0.55c0,0 0,0 0,0c0,37.2 0,57.86 0,62c0,0 0,0 0,0c-73.2,0 -113.86,0 -122,0c0,0 0,0 0,0c0,-37.2 0,-57.87 0,-62c0,0 0,0 0,0c73.2,0 113.87,0 122,0z"/>
  <path id="fO5jbjpq6" d="m-0.66,-0.55l0,62l62,0l0,-62l-62,0z"/>
  <path id="b83KLLs3n" d="m103.84,15.84c8.55,0 15.48,6.34 15.48,14.16c0,0 0,0 0,0c0,7.82 -6.93,14.16 -15.48,14.16c-0.95,0 -1.89,-0.08 -2.82,-0.24c0,-1.85 0,-11.13 0,-27.84c1.25,-0.16 2.19,-0.24 2.82,-0.24z"/>
 </defs>
 <g>
  <title>background</title>
  <rect fill="none" id="canvas_background" height="402" width="582" y="-1" x="-1"/>
 </g>
 <g>
  <title>Layer 1</title>
  <g id="svg_1">
   <g id="svg_2">
    <g id="svg_3">
     <use id="svg_4" fill="#ffffff" xlink:href="#e1qeLvgnFE"/>
     <g id="svg_5">
      <use id="svg_6" stroke-width="1.5" stroke="#000000" fill-opacity="0" xlink:href="#e1qeLvgnFE"/>
     </g>
    </g>
    <g id="svg_7">
     <use id="svg_8" fill-opacity="0" fill="#000000" xlink:href="#b17QDyrgUF"/>
     <g id="svg_9">
      <use id="svg_10" stroke-opacity="0" stroke="#000000" fill-opacity="0" xlink:href="#b17QDyrgUF"/>
     </g>
    </g>
    <g id="svg_11">
     <use id="svg_12" fill-opacity="0" fill="#000000" xlink:href="#fO5jbjpq6"/>
     <g id="svg_13">
      <use id="svg_14" stroke-opacity="0" stroke="#000000" fill-opacity="0" xlink:href="#fO5jbjpq6"/>
     </g>
    </g>
    <rect stroke="#000" id="svg_19" height="20" width="24.25" y="19.43164" x="95.3125" stroke-width="1.5" fill="#fff"/>
   </g>
  </g>
 </g>
</svg>