<?xml version="1.0" encoding="UTF-8" standalone="no"?>
<!DOCTYPE svg PUBLIC "-//W3C//DTD SVG 1.1//EN" "http://www.w3.org/Graphics/SVG/1.1/DTD/svg11.dtd">
<svg version="1.1" xmlns="http://www.w3.org/2000/svg" xmlns:xlink="http://www.w3.org/1999/xlink" preserveAspectRatio="xMidYMid meet" viewBox="0 0 60 60" width="60" height="60"><defs><path d="M61 -1C61 -1 61 -1 61 -1C61 36.2 61 56.87 61 61C61 61 61 61 61 61C23.8 61 3.13 61 -1 61C-1 61 -1 61 -1 61C-1 23.8 -1 3.13 -1 -1C-1 -1 -1 -1 -1 -1C36.2 -1 56.87 -1 61 -1Z" id="ayaVsR3Bx"></path><path d="M37.02 24.73L61 24.73L61 34.56L37.02 34.56L37.02 24.73Z" id="aA5fVLJsz"></path><path d="M38.54 29.61C38.54 34.84 34.27 39.07 29 39.07C23.73 39.07 19.46 34.84 19.46 29.61C19.46 24.38 23.73 20.15 29 20.15C34.27 20.15 38.54 24.38 38.54 29.61Z" id="a27gcEFSue"></path><path d="M33.95 29.65C33.95 32.36 31.74 34.56 29 34.56C26.26 34.56 24.05 32.36 24.05 29.65C24.05 26.93 26.26 24.73 29 24.73C31.74 24.73 33.95 26.93 33.95 29.65Z" id="hEKBCBHOj"></path></defs><g><g><g><use xlink:href="#ayaVsR3Bx" opacity="1" fill="#000000" fill-opacity="0"></use><g><use xlink:href="#ayaVsR3Bx" opacity="1" fill-opacity="0" stroke="#000000" stroke-width="1" stroke-opacity="0"></use></g></g><g><use xlink:href="#aA5fVLJsz" opacity="1" fill="#ffffff" fill-opacity="1"></use><g><use xlink:href="#aA5fVLJsz" opacity="1" fill-opacity="0" stroke="#000000" stroke-width="1.5" stroke-opacity="1"></use></g></g><g><use xlink:href="#a27gcEFSue" opacity="1" fill="#ffffff" fill-opacity="1"></use><g><use xlink:href="#a27gcEFSue" opacity="1" fill-opacity="0" stroke="#000000" stroke-width="1.5" stroke-opacity="1"></use></g></g><g><use xlink:href="#hEKBCBHOj" opacity="1" fill="#ffffff" fill-opacity="1"></use><g><use xlink:href="#hEKBCBHOj" opacity="1" fill-opacity="0" stroke="#000000" stroke-width="1.5" stroke-opacity="1"></use></g></g></g></g></svg>