<?xml version="1.0" encoding="UTF-8" standalone="no"?>
<!DOCTYPE svg PUBLIC "-//W3C//DTD SVG 1.1//EN" "http://www.w3.org/Graphics/SVG/1.1/DTD/svg11.dtd">
<svg version="1.1" xmlns="http://www.w3.org/2000/svg" xmlns:xlink="http://www.w3.org/1999/xlink" preserveAspectRatio="xMidYMid meet" viewBox="0 0 120 60" width="120" height="60"><defs><path d="M22.05 14.51L98.25 14.51L98.25 51.9L22.05 51.9L22.05 14.51Z" id="a7V2uon7AL"></path><path d="M60 33.96L60 0" id="b5NZhHJgK2"></path><path d="M50.75 33.96L120 33.96" id="b42VTxTE0s"></path><path d="M0 33.96L32.54 33.96" id="gC30mcxxc"></path><path d="M43.73 21.27L32.09 33.96" id="a2PlQwOkHG"></path><path d="M43.73 46.64L32.09 33.96" id="b14XyeFs7X"></path><path d="M51.49 33.96C51.49 38.16 48.01 41.57 43.73 41.57C39.45 41.57 35.97 38.16 35.97 33.96C35.97 29.75 39.45 26.34 43.73 26.34C48.01 26.34 51.49 29.75 51.49 33.96Z" id="iEvVnIAkM"></path><path d="M62.31 33.96C62.31 35.23 61.28 36.27 60 36.27C58.72 36.27 57.69 35.23 57.69 33.96C57.69 32.68 58.72 31.64 60 31.64C61.28 31.64 62.31 32.68 62.31 33.96Z" id="a5YKdupLZ"></path><path d="M73.73 21.27L85.37 33.96" id="f5zjevFdIq"></path><path d="M73.73 46.64L85.37 33.96" id="be32xe5Ir"></path></defs><g><g><g><use xlink:href="#a7V2uon7AL" opacity="1" fill="#ffffff" fill-opacity="1"></use><g><use xlink:href="#a7V2uon7AL" opacity="1" fill-opacity="0" stroke="#000000" stroke-width="1.5" stroke-opacity="1"></use></g></g><g><g><use xlink:href="#b5NZhHJgK2" opacity="1" fill-opacity="0" stroke="#000000" stroke-width="2" stroke-opacity="1"></use></g></g><g><g><use xlink:href="#b42VTxTE0s" opacity="1" fill-opacity="0" stroke="#000000" stroke-width="2" stroke-opacity="1"></use></g></g><g><g><use xlink:href="#gC30mcxxc" opacity="1" fill-opacity="0" stroke="#000000" stroke-width="2" stroke-opacity="1"></use></g></g><g><g><use xlink:href="#a2PlQwOkHG" opacity="1" fill-opacity="0" stroke="#000000" stroke-width="1.5" stroke-opacity="1"></use></g></g><g><g><use xlink:href="#b14XyeFs7X" opacity="1" fill-opacity="0" stroke="#000000" stroke-width="1.5" stroke-opacity="1"></use></g></g><g><use xlink:href="#iEvVnIAkM" opacity="1" fill="#ffffff" fill-opacity="1"></use><g><use xlink:href="#iEvVnIAkM" opacity="1" fill-opacity="0" stroke="#000000" stroke-width="1.5" stroke-opacity="1"></use></g></g><g><use xlink:href="#a5YKdupLZ" opacity="1" fill="#000000" fill-opacity="1"></use></g><g><g><use xlink:href="#f5zjevFdIq" opacity="1" fill-opacity="0" stroke="#000000" stroke-width="1.5" stroke-opacity="1"></use></g></g><g><g><use xlink:href="#be32xe5Ir" opacity="1" fill-opacity="0" stroke="#000000" stroke-width="1.5" stroke-opacity="1"></use></g></g></g></g></svg>