<?xml version="1.0" encoding="utf-8"?>
<!-- Generator: Adobe Illustrator 18.0.0, SVG Export Plug-In . SVG Version: 6.00 Build 0)  -->
<!DOCTYPE svg PUBLIC "-//W3C//DTD SVG 1.1//EN" "http://www.w3.org/Graphics/SVG/1.1/DTD/svg11.dtd">
<svg version="1.1" id="Layer_1" xmlns="http://www.w3.org/2000/svg" xmlns:xlink="http://www.w3.org/1999/xlink" x="0px" y="0px"
	 viewBox="0 0 64 64" enable-background="new 0 0 64 64" xml:space="preserve">
<g>
	<g>
		<g>
			<path d="M62,25H16.3c-0.8,0-1.6,0.7-1.9,1.5L3,55h48.5c0.8,0,1.5-0.5,1.8-1.2l10.5-25.6C64.3,26.9,63.3,25,62,25z" style="fill: #e0b722"/>
		</g>
	</g>
	<g>
		<g>
			<path d="M13.3,21H57v-7c0-1.1-0.9-2.4-2-2.4H33.3c-0.5,0-1-0.2-1.4-0.6l-3.4-5.4C28.1,5.2,27.6,5,27.1,5H2C0.9,5,0,5.9,0,7v44
				l11.4-28.5C11.7,21.7,12.5,21,13.3,21z" style="fill: #e0b722"/>
		</g>
	</g>
</g>
</svg>
